<?xml version="1.0" encoding="UTF-8" standalone="no"?>
<!DOCTYPE svg PUBLIC "-//W3C//DTD SVG 1.1//EN"
 "http://www.w3.org/Graphics/SVG/1.1/DTD/svg11.dtd">
<!-- Generated by graphviz version 14.0.2 (20251019.1705)
 -->
<!-- Pages: 1 -->
<svg width="2070pt" height="249pt"
 viewBox="0.00 0.00 2070.00 249.00" xmlns="http://www.w3.org/2000/svg" xmlns:xlink="http://www.w3.org/1999/xlink">
<g id="graph0" class="graph" transform="scale(1 1) rotate(0) translate(4 245)">
<polygon fill="white" stroke="none" points="-4,4 -4,-245 2066.37,-245 2066.37,4 -4,4"/>
<!-- 2130877352992 -->
<g id="node1" class="node">
<title>2130877352992</title>
<polygon fill="none" stroke="black" points="608.25,-37.5 608.25,-73.5 773.75,-73.5 773.75,-37.5 608.25,-37.5"/>
<text xml:space="preserve" text-anchor="middle" x="650.38" y="-50.7" font-family="Times New Roman,serif" font-size="14.00">data &#45;1.0000</text>
<polyline fill="none" stroke="black" points="692.5,-38 692.5,-73.5"/>
<text xml:space="preserve" text-anchor="middle" x="733.13" y="-50.7" font-family="Times New Roman,serif" font-size="14.00">grad 0.0000</text>
</g>
<!-- 2130877353184* -->
<g id="node13" class="node">
<title>2130877353184*</title>
<ellipse fill="none" stroke="black" cx="840.93" cy="-87.5" rx="27" ry="18"/>
<text xml:space="preserve" text-anchor="middle" x="840.93" y="-82.45" font-family="Times New Roman,serif" font-size="14.00">*</text>
</g>
<!-- 2130877352992&#45;&gt;2130877353184* -->
<g id="edge21" class="edge">
<title>2130877352992&#45;&gt;2130877353184*</title>
<path fill="none" stroke="black" d="M774.19,-73.28C784.45,-75.5 794.5,-77.67 803.54,-79.63"/>
<polygon fill="black" stroke="black" points="802.77,-83.04 813.28,-81.73 804.25,-76.2 802.77,-83.04"/>
</g>
<!-- 2130877353520 -->
<g id="node2" class="node">
<title>2130877353520</title>
<polygon fill="none" stroke="black" points="1609.87,-55.5 1609.87,-91.5 1770.87,-91.5 1770.87,-55.5 1609.87,-55.5"/>
<text xml:space="preserve" text-anchor="middle" x="1649.74" y="-68.7" font-family="Times New Roman,serif" font-size="14.00">data 1.3333</text>
<polyline fill="none" stroke="black" points="1689.62,-56 1689.62,-91.5"/>
<text xml:space="preserve" text-anchor="middle" x="1730.24" y="-68.7" font-family="Times New Roman,serif" font-size="14.00">grad 1.0000</text>
</g>
<!-- 2130877353952+ -->
<g id="node29" class="node">
<title>2130877353952+</title>
<ellipse fill="none" stroke="black" cx="1833.87" cy="-47.5" rx="27" ry="18"/>
<text xml:space="preserve" text-anchor="middle" x="1833.87" y="-42.45" font-family="Times New Roman,serif" font-size="14.00">+</text>
</g>
<!-- 2130877353520&#45;&gt;2130877353952+ -->
<g id="edge23" class="edge">
<title>2130877353520&#45;&gt;2130877353952+</title>
<path fill="none" stroke="black" d="M1771.22,-58.83C1779.96,-57.22 1788.51,-55.65 1796.33,-54.21"/>
<polygon fill="black" stroke="black" points="1796.87,-57.67 1806.08,-52.42 1795.61,-50.79 1796.87,-57.67"/>
</g>
<!-- 2130877353520+ -->
<g id="node3" class="node">
<title>2130877353520+</title>
<ellipse fill="none" stroke="black" cx="1491.12" cy="-87.5" rx="27" ry="18"/>
<text xml:space="preserve" text-anchor="middle" x="1491.12" y="-82.45" font-family="Times New Roman,serif" font-size="14.00">+</text>
</g>
<!-- 2130877353520+&#45;&gt;2130877353520 -->
<g id="edge1" class="edge">
<title>2130877353520+&#45;&gt;2130877353520</title>
<path fill="none" stroke="black" d="M1518.31,-85.64C1539.03,-84.17 1569.26,-82.02 1598.57,-79.94"/>
<polygon fill="black" stroke="black" points="1598.49,-83.46 1608.22,-79.26 1598,-76.48 1598.49,-83.46"/>
</g>
<!-- 2130877352512 -->
<g id="node4" class="node">
<title>2130877352512</title>
<polygon fill="none" stroke="black" points="604.88,-147.5 604.88,-183.5 777.13,-183.5 777.13,-147.5 604.88,-147.5"/>
<text xml:space="preserve" text-anchor="middle" x="648.13" y="-160.7" font-family="Times New Roman,serif" font-size="14.00">data 12.0000</text>
<polyline fill="none" stroke="black" points="691.38,-148 691.38,-183.5"/>
<text xml:space="preserve" text-anchor="middle" x="734.25" y="-160.7" font-family="Times New Roman,serif" font-size="14.00">grad &#45;0.1111</text>
</g>
<!-- 2130877352656**&#45;1 -->
<g id="node11" class="node">
<title>2130877352656**&#45;1</title>
<ellipse fill="none" stroke="black" cx="840.93" cy="-165.5" rx="27.81" ry="18"/>
<text xml:space="preserve" text-anchor="middle" x="840.93" y="-160.45" font-family="Times New Roman,serif" font-size="14.00">**&#45;1</text>
</g>
<!-- 2130877352512&#45;&gt;2130877352656**&#45;1 -->
<g id="edge29" class="edge">
<title>2130877352512&#45;&gt;2130877352656**&#45;1</title>
<path fill="none" stroke="black" d="M777.63,-165.5C785.83,-165.5 793.84,-165.5 801.23,-165.5"/>
<polygon fill="black" stroke="black" points="801.14,-169 811.14,-165.5 801.14,-162 801.14,-169"/>
</g>
<!-- 2130877352512ReLU -->
<g id="node5" class="node">
<title>2130877352512ReLU</title>
<ellipse fill="none" stroke="black" cx="535.44" cy="-142.5" rx="33.44" ry="18"/>
<text xml:space="preserve" text-anchor="middle" x="535.44" y="-137.45" font-family="Times New Roman,serif" font-size="14.00">ReLU</text>
</g>
<!-- 2130877352512ReLU&#45;&gt;2130877352512 -->
<g id="edge2" class="edge">
<title>2130877352512ReLU&#45;&gt;2130877352512</title>
<path fill="none" stroke="black" d="M567.88,-147.21C575.62,-148.37 584.31,-149.67 593.4,-151.03"/>
<polygon fill="black" stroke="black" points="592.74,-154.47 603.15,-152.49 593.78,-147.55 592.74,-154.47"/>
</g>
<!-- 2130877351072 -->
<g id="node6" class="node">
<title>2130877351072</title>
<polygon fill="none" stroke="black" points="297.12,-169.5 297.12,-205.5 462.62,-205.5 462.62,-169.5 297.12,-169.5"/>
<text xml:space="preserve" text-anchor="middle" x="339.25" y="-182.7" font-family="Times New Roman,serif" font-size="14.00">data &#45;6.0000</text>
<polyline fill="none" stroke="black" points="381.38,-170 381.38,-205.5"/>
<text xml:space="preserve" text-anchor="middle" x="422" y="-182.7" font-family="Times New Roman,serif" font-size="14.00">grad 0.6667</text>
</g>
<!-- 2130877351600+ -->
<g id="node9" class="node">
<title>2130877351600+</title>
<ellipse fill="none" stroke="black" cx="535.44" cy="-220.5" rx="27" ry="18"/>
<text xml:space="preserve" text-anchor="middle" x="535.44" y="-215.45" font-family="Times New Roman,serif" font-size="14.00">+</text>
</g>
<!-- 2130877351072&#45;&gt;2130877351600+ -->
<g id="edge19" class="edge">
<title>2130877351072&#45;&gt;2130877351600+</title>
<path fill="none" stroke="black" d="M463.05,-205.16C475.41,-207.82 487.58,-210.43 498.28,-212.73"/>
<polygon fill="black" stroke="black" points="497.25,-216.09 507.76,-214.77 498.72,-209.24 497.25,-216.09"/>
</g>
<!-- 2130877351072* -->
<g id="node7" class="node">
<title>2130877351072*</title>
<ellipse fill="none" stroke="black" cx="230.75" cy="-187.5" rx="27" ry="18"/>
<text xml:space="preserve" text-anchor="middle" x="230.75" y="-182.45" font-family="Times New Roman,serif" font-size="14.00">*</text>
</g>
<!-- 2130877351072*&#45;&gt;2130877351072 -->
<g id="edge3" class="edge">
<title>2130877351072*&#45;&gt;2130877351072</title>
<path fill="none" stroke="black" d="M258.05,-187.5C266.1,-187.5 275.46,-187.5 285.33,-187.5"/>
<polygon fill="black" stroke="black" points="285.15,-191 295.15,-187.5 285.15,-184 285.15,-191"/>
</g>
<!-- 2130877351600 -->
<g id="node8" class="node">
<title>2130877351600</title>
<polygon fill="none" stroke="black" points="610.5,-202.5 610.5,-238.5 771.5,-238.5 771.5,-202.5 610.5,-202.5"/>
<text xml:space="preserve" text-anchor="middle" x="650.38" y="-215.7" font-family="Times New Roman,serif" font-size="14.00">data 4.0000</text>
<polyline fill="none" stroke="black" points="690.25,-203 690.25,-238.5"/>
<text xml:space="preserve" text-anchor="middle" x="730.88" y="-215.7" font-family="Times New Roman,serif" font-size="14.00">grad 0.6667</text>
</g>
<!-- 2130877351792**2 -->
<g id="node20" class="node">
<title>2130877351792**2</title>
<ellipse fill="none" stroke="black" cx="840.93" cy="-220.5" rx="27" ry="18"/>
<text xml:space="preserve" text-anchor="middle" x="840.93" y="-215.45" font-family="Times New Roman,serif" font-size="14.00">**2</text>
</g>
<!-- 2130877351600&#45;&gt;2130877351792**2 -->
<g id="edge22" class="edge">
<title>2130877351600&#45;&gt;2130877351792**2</title>
<path fill="none" stroke="black" d="M771.6,-220.5C782.27,-220.5 792.79,-220.5 802.25,-220.5"/>
<polygon fill="black" stroke="black" points="802.1,-224 812.1,-220.5 802.1,-217 802.1,-224"/>
</g>
<!-- 2130877351600+&#45;&gt;2130877351600 -->
<g id="edge4" class="edge">
<title>2130877351600+&#45;&gt;2130877351600</title>
<path fill="none" stroke="black" d="M562.84,-220.5C573.22,-220.5 585.81,-220.5 598.97,-220.5"/>
<polygon fill="black" stroke="black" points="598.62,-224 608.62,-220.5 598.62,-217 598.62,-224"/>
</g>
<!-- 2130877352656 -->
<g id="node10" class="node">
<title>2130877352656</title>
<polygon fill="none" stroke="black" points="904.74,-147.5 904.74,-183.5 1072.49,-183.5 1072.49,-147.5 904.74,-147.5"/>
<text xml:space="preserve" text-anchor="middle" x="944.62" y="-160.7" font-family="Times New Roman,serif" font-size="14.00">data 0.0833</text>
<polyline fill="none" stroke="black" points="984.49,-148 984.49,-183.5"/>
<text xml:space="preserve" text-anchor="middle" x="1028.49" y="-160.7" font-family="Times New Roman,serif" font-size="14.00">grad 16.0000</text>
</g>
<!-- 2130877352896* -->
<g id="node27" class="node">
<title>2130877352896*</title>
<ellipse fill="none" stroke="black" cx="1141.93" cy="-165.5" rx="27" ry="18"/>
<text xml:space="preserve" text-anchor="middle" x="1141.93" y="-160.45" font-family="Times New Roman,serif" font-size="14.00">*</text>
</g>
<!-- 2130877352656&#45;&gt;2130877352896* -->
<g id="edge24" class="edge">
<title>2130877352656&#45;&gt;2130877352896*</title>
<path fill="none" stroke="black" d="M1072.8,-165.5C1083.42,-165.5 1093.85,-165.5 1103.22,-165.5"/>
<polygon fill="black" stroke="black" points="1102.96,-169 1112.96,-165.5 1102.96,-162 1102.96,-169"/>
</g>
<!-- 2130877352656**&#45;1&#45;&gt;2130877352656 -->
<g id="edge5" class="edge">
<title>2130877352656**&#45;1&#45;&gt;2130877352656</title>
<path fill="none" stroke="black" d="M868.99,-165.5C876.15,-165.5 884.29,-165.5 892.88,-165.5"/>
<polygon fill="black" stroke="black" points="892.87,-169 902.87,-165.5 892.87,-162 892.87,-169"/>
</g>
<!-- 2130877353184 -->
<g id="node12" class="node">
<title>2130877353184</title>
<polygon fill="none" stroke="black" points="905.87,-69.5 905.87,-105.5 1071.37,-105.5 1071.37,-69.5 905.87,-69.5"/>
<text xml:space="preserve" text-anchor="middle" x="947.99" y="-82.7" font-family="Times New Roman,serif" font-size="14.00">data &#45;4.0000</text>
<polyline fill="none" stroke="black" points="990.12,-70 990.12,-105.5"/>
<text xml:space="preserve" text-anchor="middle" x="1030.74" y="-82.7" font-family="Times New Roman,serif" font-size="14.00">grad 0.0000</text>
</g>
<!-- 2130877353328ReLU -->
<g id="node23" class="node">
<title>2130877353328ReLU</title>
<ellipse fill="none" stroke="black" cx="1141.93" cy="-87.5" rx="33.44" ry="18"/>
<text xml:space="preserve" text-anchor="middle" x="1141.93" y="-82.45" font-family="Times New Roman,serif" font-size="14.00">ReLU</text>
</g>
<!-- 2130877353184&#45;&gt;2130877353328ReLU -->
<g id="edge30" class="edge">
<title>2130877353184&#45;&gt;2130877353328ReLU</title>
<path fill="none" stroke="black" d="M1071.47,-87.5C1080.18,-87.5 1088.77,-87.5 1096.79,-87.5"/>
<polygon fill="black" stroke="black" points="1096.55,-91 1106.55,-87.5 1096.55,-84 1096.55,-91"/>
</g>
<!-- 2130877353184*&#45;&gt;2130877353184 -->
<g id="edge6" class="edge">
<title>2130877353184*&#45;&gt;2130877353184</title>
<path fill="none" stroke="black" d="M868.32,-87.5C876.04,-87.5 884.95,-87.5 894.36,-87.5"/>
<polygon fill="black" stroke="black" points="894.08,-91 904.08,-87.5 894.08,-84 894.08,-91"/>
</g>
<!-- 2130877353712 -->
<g id="node14" class="node">
<title>2130877353712</title>
<polygon fill="none" stroke="black" points="1.12,-0.5 1.12,-36.5 166.62,-36.5 166.62,-0.5 1.12,-0.5"/>
<text xml:space="preserve" text-anchor="middle" x="43.25" y="-13.7" font-family="Times New Roman,serif" font-size="14.00">data &#45;1.0000</text>
<polyline fill="none" stroke="black" points="85.38,-1 85.38,-36.5"/>
<text xml:space="preserve" text-anchor="middle" x="126" y="-13.7" font-family="Times New Roman,serif" font-size="14.00">grad 2.0000</text>
</g>
<!-- 2130877353760* -->
<g id="node17" class="node">
<title>2130877353760*</title>
<ellipse fill="none" stroke="black" cx="230.75" cy="-18.5" rx="27" ry="18"/>
<text xml:space="preserve" text-anchor="middle" x="230.75" y="-13.45" font-family="Times New Roman,serif" font-size="14.00">*</text>
</g>
<!-- 2130877353712&#45;&gt;2130877353760* -->
<g id="edge16" class="edge">
<title>2130877353712&#45;&gt;2130877353760*</title>
<path fill="none" stroke="black" d="M167.05,-18.5C175.78,-18.5 184.33,-18.5 192.16,-18.5"/>
<polygon fill="black" stroke="black" points="191.92,-22 201.92,-18.5 191.92,-15 191.92,-22"/>
</g>
<!-- 2130877351360 -->
<g id="node15" class="node">
<title>2130877351360</title>
<polygon fill="none" stroke="black" points="1.12,-204.5 1.12,-240.5 166.62,-240.5 166.62,-204.5 1.12,-204.5"/>
<text xml:space="preserve" text-anchor="middle" x="43.25" y="-217.7" font-family="Times New Roman,serif" font-size="14.00">data &#45;3.0000</text>
<polyline fill="none" stroke="black" points="85.38,-205 85.38,-240.5"/>
<text xml:space="preserve" text-anchor="middle" x="126" y="-217.7" font-family="Times New Roman,serif" font-size="14.00">grad 1.3333</text>
</g>
<!-- 2130877351360&#45;&gt;2130877351072* -->
<g id="edge13" class="edge">
<title>2130877351360&#45;&gt;2130877351072*</title>
<path fill="none" stroke="black" d="M161.13,-204.08C172.5,-201.33 183.74,-198.62 193.73,-196.2"/>
<polygon fill="black" stroke="black" points="194.45,-199.63 203.35,-193.88 192.81,-192.82 194.45,-199.63"/>
</g>
<!-- 2130877353760 -->
<g id="node16" class="node">
<title>2130877353760</title>
<polygon fill="none" stroke="black" points="1408.37,-2.5 1408.37,-38.5 1573.87,-38.5 1573.87,-2.5 1408.37,-2.5"/>
<text xml:space="preserve" text-anchor="middle" x="1450.49" y="-15.7" font-family="Times New Roman,serif" font-size="14.00">data &#45;2.0000</text>
<polyline fill="none" stroke="black" points="1492.62,-3 1492.62,-38.5"/>
<text xml:space="preserve" text-anchor="middle" x="1533.24" y="-15.7" font-family="Times New Roman,serif" font-size="14.00">grad 1.0000</text>
</g>
<!-- 2130877353760&#45;&gt;2130877353952+ -->
<g id="edge28" class="edge">
<title>2130877353760&#45;&gt;2130877353952+</title>
<path fill="none" stroke="black" d="M1574.17,-27C1644.47,-32.57 1742.51,-40.34 1795.43,-44.53"/>
<polygon fill="black" stroke="black" points="1794.87,-48 1805.12,-45.3 1795.43,-41.02 1794.87,-48"/>
</g>
<!-- 2130877353760*&#45;&gt;2130877353760 -->
<g id="edge7" class="edge">
<title>2130877353760*&#45;&gt;2130877353760</title>
<path fill="none" stroke="black" d="M258.06,-17.05C310.58,-14.27 432.17,-8.5 534.44,-8.5 534.44,-8.5 534.44,-8.5 1142.93,-8.5 1228.91,-8.5 1326.8,-12.22 1396.67,-15.52"/>
<polygon fill="black" stroke="black" points="1396.4,-19.01 1406.56,-15.99 1396.74,-12.02 1396.4,-19.01"/>
</g>
<!-- 2130877351264 -->
<g id="node18" class="node">
<title>2130877351264</title>
<polygon fill="none" stroke="black" points="0,-149.5 0,-185.5 167.75,-185.5 167.75,-149.5 0,-149.5"/>
<text xml:space="preserve" text-anchor="middle" x="43.25" y="-162.7" font-family="Times New Roman,serif" font-size="14.00">data 10.0000</text>
<polyline fill="none" stroke="black" points="86.5,-150 86.5,-185.5"/>
<text xml:space="preserve" text-anchor="middle" x="127.12" y="-162.7" font-family="Times New Roman,serif" font-size="14.00">grad 0.5556</text>
</g>
<!-- 2130877351264&#45;&gt;2130877351600+ -->
<g id="edge27" class="edge">
<title>2130877351264&#45;&gt;2130877351600+</title>
<path fill="none" stroke="black" d="M143.28,-185.92C151.57,-188.92 159.94,-192.14 167.75,-195.5 184.37,-202.64 186.23,-209.99 203.75,-214.5 307.45,-241.19 435.54,-232.18 497.47,-225.32"/>
<polygon fill="black" stroke="black" points="497.56,-228.83 507.09,-224.2 496.75,-221.88 497.56,-228.83"/>
</g>
<!-- 2130877352368+ -->
<g id="node25" class="node">
<title>2130877352368+</title>
<ellipse fill="none" stroke="black" cx="230.75" cy="-132.5" rx="27" ry="18"/>
<text xml:space="preserve" text-anchor="middle" x="230.75" y="-127.45" font-family="Times New Roman,serif" font-size="14.00">+</text>
</g>
<!-- 2130877351264&#45;&gt;2130877352368+ -->
<g id="edge14" class="edge">
<title>2130877351264&#45;&gt;2130877352368+</title>
<path fill="none" stroke="black" d="M161.13,-149.08C172.5,-146.33 183.74,-143.62 193.73,-141.2"/>
<polygon fill="black" stroke="black" points="194.45,-144.63 203.35,-138.88 192.81,-137.82 194.45,-144.63"/>
</g>
<!-- 2130877351792 -->
<g id="node19" class="node">
<title>2130877351792</title>
<polygon fill="none" stroke="black" points="904.74,-202.5 904.74,-238.5 1072.49,-238.5 1072.49,-202.5 904.74,-202.5"/>
<text xml:space="preserve" text-anchor="middle" x="947.99" y="-215.7" font-family="Times New Roman,serif" font-size="14.00">data 16.0000</text>
<polyline fill="none" stroke="black" points="991.24,-203 991.24,-238.5"/>
<text xml:space="preserve" text-anchor="middle" x="1031.87" y="-215.7" font-family="Times New Roman,serif" font-size="14.00">grad 0.0833</text>
</g>
<!-- 2130877351792&#45;&gt;2130877352896* -->
<g id="edge18" class="edge">
<title>2130877351792&#45;&gt;2130877352896*</title>
<path fill="none" stroke="black" d="M1048.21,-202.01C1056.4,-199.25 1064.68,-196.37 1072.49,-193.5 1084.27,-189.18 1097.04,-184.07 1108.32,-179.41"/>
<polygon fill="black" stroke="black" points="1109.32,-182.79 1117.19,-175.71 1106.62,-176.33 1109.32,-182.79"/>
</g>
<!-- 2130877351792**2&#45;&gt;2130877351792 -->
<g id="edge8" class="edge">
<title>2130877351792**2&#45;&gt;2130877351792</title>
<path fill="none" stroke="black" d="M868.32,-220.5C875.64,-220.5 884.04,-220.5 892.91,-220.5"/>
<polygon fill="black" stroke="black" points="892.85,-224 902.85,-220.5 892.85,-217 892.85,-224"/>
</g>
<!-- 2130877351312 -->
<g id="node21" class="node">
<title>2130877351312</title>
<polygon fill="none" stroke="black" points="1.12,-94.5 1.12,-130.5 166.62,-130.5 166.62,-94.5 1.12,-94.5"/>
<text xml:space="preserve" text-anchor="middle" x="41" y="-107.7" font-family="Times New Roman,serif" font-size="14.00">data 2.0000</text>
<polyline fill="none" stroke="black" points="80.88,-95 80.88,-130.5"/>
<text xml:space="preserve" text-anchor="middle" x="123.75" y="-107.7" font-family="Times New Roman,serif" font-size="14.00">grad &#45;3.1111</text>
</g>
<!-- 2130877351312&#45;&gt;2130877351072* -->
<g id="edge20" class="edge">
<title>2130877351312&#45;&gt;2130877351072*</title>
<path fill="none" stroke="black" d="M146.91,-130.98C154.08,-133.84 161.17,-137.02 167.75,-140.5 180.99,-147.52 194.4,-157.28 205.34,-166.09"/>
<polygon fill="black" stroke="black" points="202.8,-168.53 212.73,-172.22 207.27,-163.14 202.8,-168.53"/>
</g>
<!-- 2130877351312&#45;&gt;2130877353760* -->
<g id="edge17" class="edge">
<title>2130877351312&#45;&gt;2130877353760*</title>
<path fill="none" stroke="black" d="M113.15,-94.15C138.6,-77.64 175.79,-53.51 201.29,-36.96"/>
<polygon fill="black" stroke="black" points="203.02,-40.02 209.5,-31.64 199.21,-34.14 203.02,-40.02"/>
</g>
<!-- 2130877351312&#45;&gt;2130877352368+ -->
<g id="edge26" class="edge">
<title>2130877351312&#45;&gt;2130877352368+</title>
<path fill="none" stroke="black" d="M167.05,-123.84C176.06,-125.09 184.87,-126.3 192.9,-127.41"/>
<polygon fill="black" stroke="black" points="192.15,-130.84 202.54,-128.74 193.11,-123.91 192.15,-130.84"/>
</g>
<!-- 2130877353328 -->
<g id="node22" class="node">
<title>2130877353328</title>
<polygon fill="none" stroke="black" points="1211.37,-69.5 1211.37,-105.5 1372.37,-105.5 1372.37,-69.5 1211.37,-69.5"/>
<text xml:space="preserve" text-anchor="middle" x="1251.24" y="-82.7" font-family="Times New Roman,serif" font-size="14.00">data 0.0000</text>
<polyline fill="none" stroke="black" points="1291.12,-70 1291.12,-105.5"/>
<text xml:space="preserve" text-anchor="middle" x="1331.74" y="-82.7" font-family="Times New Roman,serif" font-size="14.00">grad 1.0000</text>
</g>
<!-- 2130877353328&#45;&gt;2130877353520+ -->
<g id="edge31" class="edge">
<title>2130877353328&#45;&gt;2130877353520+</title>
<path fill="none" stroke="black" d="M1372.81,-87.5C1400.33,-87.5 1429.87,-87.5 1452.41,-87.5"/>
<polygon fill="black" stroke="black" points="1452.33,-91 1462.33,-87.5 1452.33,-84 1452.33,-91"/>
</g>
<!-- 2130877353328ReLU&#45;&gt;2130877353328 -->
<g id="edge9" class="edge">
<title>2130877353328ReLU&#45;&gt;2130877353328</title>
<path fill="none" stroke="black" d="M1175.76,-87.5C1183.1,-87.5 1191.23,-87.5 1199.68,-87.5"/>
<polygon fill="black" stroke="black" points="1199.42,-91 1209.42,-87.5 1199.42,-84 1199.42,-91"/>
</g>
<!-- 2130877352368 -->
<g id="node24" class="node">
<title>2130877352368</title>
<polygon fill="none" stroke="black" points="293.75,-114.5 293.75,-150.5 466,-150.5 466,-114.5 293.75,-114.5"/>
<text xml:space="preserve" text-anchor="middle" x="337" y="-127.7" font-family="Times New Roman,serif" font-size="14.00">data 12.0000</text>
<polyline fill="none" stroke="black" points="380.25,-115 380.25,-150.5"/>
<text xml:space="preserve" text-anchor="middle" x="423.12" y="-127.7" font-family="Times New Roman,serif" font-size="14.00">grad &#45;0.1111</text>
</g>
<!-- 2130877352368&#45;&gt;2130877352512ReLU -->
<g id="edge32" class="edge">
<title>2130877352368&#45;&gt;2130877352512ReLU</title>
<path fill="none" stroke="black" d="M466.19,-138.06C474.62,-138.6 482.92,-139.15 490.66,-139.65"/>
<polygon fill="black" stroke="black" points="490.22,-143.13 500.43,-140.29 490.67,-136.14 490.22,-143.13"/>
</g>
<!-- 2130877352368+&#45;&gt;2130877352368 -->
<g id="edge10" class="edge">
<title>2130877352368+&#45;&gt;2130877352368</title>
<path fill="none" stroke="black" d="M258.05,-132.5C265.26,-132.5 273.51,-132.5 282.25,-132.5"/>
<polygon fill="black" stroke="black" points="282.02,-136 292.02,-132.5 282.02,-129 282.02,-136"/>
</g>
<!-- 2130877352896 -->
<g id="node26" class="node">
<title>2130877352896</title>
<polygon fill="none" stroke="black" points="1211.37,-136.5 1211.37,-172.5 1372.37,-172.5 1372.37,-136.5 1211.37,-136.5"/>
<text xml:space="preserve" text-anchor="middle" x="1251.24" y="-149.7" font-family="Times New Roman,serif" font-size="14.00">data 1.3333</text>
<polyline fill="none" stroke="black" points="1291.12,-137 1291.12,-172.5"/>
<text xml:space="preserve" text-anchor="middle" x="1331.74" y="-149.7" font-family="Times New Roman,serif" font-size="14.00">grad 1.0000</text>
</g>
<!-- 2130877352896&#45;&gt;2130877353520+ -->
<g id="edge15" class="edge">
<title>2130877352896&#45;&gt;2130877353520+</title>
<path fill="none" stroke="black" d="M1347.29,-136.01C1381.97,-124.23 1425.85,-109.33 1455.76,-99.17"/>
<polygon fill="black" stroke="black" points="1456.72,-102.54 1465.06,-96.01 1454.46,-95.91 1456.72,-102.54"/>
</g>
<!-- 2130877352896*&#45;&gt;2130877352896 -->
<g id="edge11" class="edge">
<title>2130877352896*&#45;&gt;2130877352896</title>
<path fill="none" stroke="black" d="M1169.04,-163.56C1178,-162.89 1188.6,-162.1 1199.75,-161.28"/>
<polygon fill="black" stroke="black" points="1199.82,-164.78 1209.53,-160.55 1199.3,-157.8 1199.82,-164.78"/>
</g>
<!-- 2130877353952 -->
<g id="node28" class="node">
<title>2130877353952</title>
<polygon fill="none" stroke="black" points="1896.87,-29.5 1896.87,-65.5 2062.37,-65.5 2062.37,-29.5 1896.87,-29.5"/>
<text xml:space="preserve" text-anchor="middle" x="1938.99" y="-42.7" font-family="Times New Roman,serif" font-size="14.00">data &#45;0.6667</text>
<polyline fill="none" stroke="black" points="1981.12,-30 1981.12,-65.5"/>
<text xml:space="preserve" text-anchor="middle" x="2021.74" y="-42.7" font-family="Times New Roman,serif" font-size="14.00">grad 1.0000</text>
</g>
<!-- 2130877353952+&#45;&gt;2130877353952 -->
<g id="edge12" class="edge">
<title>2130877353952+&#45;&gt;2130877353952</title>
<path fill="none" stroke="black" d="M1861.23,-47.5C1868.34,-47.5 1876.44,-47.5 1885.01,-47.5"/>
<polygon fill="black" stroke="black" points="1884.96,-51 1894.96,-47.5 1884.96,-44 1884.96,-51"/>
</g>
<!-- 2130877352944 -->
<g id="node30" class="node">
<title>2130877352944</title>
<polygon fill="none" stroke="black" points="610.5,-92.5 610.5,-128.5 771.5,-128.5 771.5,-92.5 610.5,-92.5"/>
<text xml:space="preserve" text-anchor="middle" x="650.38" y="-105.7" font-family="Times New Roman,serif" font-size="14.00">data 4.0000</text>
<polyline fill="none" stroke="black" points="690.25,-93 690.25,-128.5"/>
<text xml:space="preserve" text-anchor="middle" x="730.88" y="-105.7" font-family="Times New Roman,serif" font-size="14.00">grad 0.0000</text>
</g>
<!-- 2130877352944&#45;&gt;2130877353184* -->
<g id="edge25" class="edge">
<title>2130877352944&#45;&gt;2130877353184*</title>
<path fill="none" stroke="black" d="M771.6,-98.12C782.59,-96.42 793.41,-94.73 803.08,-93.23"/>
<polygon fill="black" stroke="black" points="803.42,-96.72 812.76,-91.73 802.34,-89.8 803.42,-96.72"/>
</g>
</g>
</svg>
