<?xml version="1.0" encoding="UTF-8" standalone="no"?>
<!DOCTYPE svg PUBLIC "-//W3C//DTD SVG 1.1//EN"
 "http://www.w3.org/Graphics/SVG/1.1/DTD/svg11.dtd">
<!-- Generated by graphviz version 14.0.2 (20251019.1705)
 -->
<!-- Pages: 1 -->
<svg width="2070pt" height="270pt"
 viewBox="0.00 0.00 2070.00 270.00" xmlns="http://www.w3.org/2000/svg" xmlns:xlink="http://www.w3.org/1999/xlink">
<g id="graph0" class="graph" transform="scale(1 1) rotate(0) translate(4 266)">
<polygon fill="white" stroke="none" points="-4,4 -4,-266 2066.37,-266 2066.37,4 -4,4"/>
<!-- 2779334707200 -->
<g id="node1" class="node">
<title>2779334707200</title>
<polygon fill="none" stroke="black" points="610.5,-110.5 610.5,-146.5 771.5,-146.5 771.5,-110.5 610.5,-110.5"/>
<text xml:space="preserve" text-anchor="middle" x="650.38" y="-123.7" font-family="Times New Roman,serif" font-size="14.00">data 4.0000</text>
<polyline fill="none" stroke="black" points="690.25,-111 690.25,-146.5"/>
<text xml:space="preserve" text-anchor="middle" x="730.88" y="-123.7" font-family="Times New Roman,serif" font-size="14.00">grad 0.6667</text>
</g>
<!-- 2779334707392**2 -->
<g id="node12" class="node">
<title>2779334707392**2</title>
<ellipse fill="none" stroke="black" cx="840.93" cy="-128.5" rx="27" ry="18"/>
<text xml:space="preserve" text-anchor="middle" x="840.93" y="-123.45" font-family="Times New Roman,serif" font-size="14.00">**2</text>
</g>
<!-- 2779334707200&#45;&gt;2779334707392**2 -->
<g id="edge28" class="edge">
<title>2779334707200&#45;&gt;2779334707392**2</title>
<path fill="none" stroke="black" d="M771.6,-128.5C782.27,-128.5 792.79,-128.5 802.25,-128.5"/>
<polygon fill="black" stroke="black" points="802.1,-132 812.1,-128.5 802.1,-125 802.1,-132"/>
</g>
<!-- 2779334707200+ -->
<g id="node2" class="node">
<title>2779334707200+</title>
<ellipse fill="none" stroke="black" cx="535.44" cy="-128.5" rx="27" ry="18"/>
<text xml:space="preserve" text-anchor="middle" x="535.44" y="-123.45" font-family="Times New Roman,serif" font-size="14.00">+</text>
</g>
<!-- 2779334707200+&#45;&gt;2779334707200 -->
<g id="edge1" class="edge">
<title>2779334707200+&#45;&gt;2779334707200</title>
<path fill="none" stroke="black" d="M562.84,-128.5C573.22,-128.5 585.81,-128.5 598.97,-128.5"/>
<polygon fill="black" stroke="black" points="598.62,-132 608.62,-128.5 598.62,-125 598.62,-132"/>
</g>
<!-- 2779334708304 -->
<g id="node3" class="node">
<title>2779334708304</title>
<polygon fill="none" stroke="black" points="904.74,-165.5 904.74,-201.5 1072.49,-201.5 1072.49,-165.5 904.74,-165.5"/>
<text xml:space="preserve" text-anchor="middle" x="944.62" y="-178.7" font-family="Times New Roman,serif" font-size="14.00">data 0.0833</text>
<polyline fill="none" stroke="black" points="984.49,-166 984.49,-201.5"/>
<text xml:space="preserve" text-anchor="middle" x="1028.49" y="-178.7" font-family="Times New Roman,serif" font-size="14.00">grad 16.0000</text>
</g>
<!-- 2779334708544* -->
<g id="node20" class="node">
<title>2779334708544*</title>
<ellipse fill="none" stroke="black" cx="1141.93" cy="-158.5" rx="27" ry="18"/>
<text xml:space="preserve" text-anchor="middle" x="1141.93" y="-153.45" font-family="Times New Roman,serif" font-size="14.00">*</text>
</g>
<!-- 2779334708304&#45;&gt;2779334708544* -->
<g id="edge26" class="edge">
<title>2779334708304&#45;&gt;2779334708544*</title>
<path fill="none" stroke="black" d="M1072.8,-169.76C1083.83,-167.93 1094.65,-166.15 1104.3,-164.55"/>
<polygon fill="black" stroke="black" points="1104.64,-168.04 1113.94,-162.96 1103.5,-161.14 1104.64,-168.04"/>
</g>
<!-- 2779334708304**&#45;1 -->
<g id="node4" class="node">
<title>2779334708304**&#45;1</title>
<ellipse fill="none" stroke="black" cx="840.93" cy="-183.5" rx="27.81" ry="18"/>
<text xml:space="preserve" text-anchor="middle" x="840.93" y="-178.45" font-family="Times New Roman,serif" font-size="14.00">**&#45;1</text>
</g>
<!-- 2779334708304**&#45;1&#45;&gt;2779334708304 -->
<g id="edge2" class="edge">
<title>2779334708304**&#45;1&#45;&gt;2779334708304</title>
<path fill="none" stroke="black" d="M868.99,-183.5C876.15,-183.5 884.29,-183.5 892.88,-183.5"/>
<polygon fill="black" stroke="black" points="892.87,-187 902.87,-183.5 892.87,-180 892.87,-187"/>
</g>
<!-- 2779334708832 -->
<g id="node5" class="node">
<title>2779334708832</title>
<polygon fill="none" stroke="black" points="905.87,-55.5 905.87,-91.5 1071.37,-91.5 1071.37,-55.5 905.87,-55.5"/>
<text xml:space="preserve" text-anchor="middle" x="947.99" y="-68.7" font-family="Times New Roman,serif" font-size="14.00">data &#45;4.0000</text>
<polyline fill="none" stroke="black" points="990.12,-56 990.12,-91.5"/>
<text xml:space="preserve" text-anchor="middle" x="1030.74" y="-68.7" font-family="Times New Roman,serif" font-size="14.00">grad 0.0000</text>
</g>
<!-- 2779334708976ReLU -->
<g id="node15" class="node">
<title>2779334708976ReLU</title>
<ellipse fill="none" stroke="black" cx="1141.93" cy="-77.5" rx="33.44" ry="18"/>
<text xml:space="preserve" text-anchor="middle" x="1141.93" y="-72.45" font-family="Times New Roman,serif" font-size="14.00">ReLU</text>
</g>
<!-- 2779334708832&#45;&gt;2779334708976ReLU -->
<g id="edge30" class="edge">
<title>2779334708832&#45;&gt;2779334708976ReLU</title>
<path fill="none" stroke="black" d="M1071.47,-75.66C1080.18,-75.89 1088.77,-76.12 1096.79,-76.33"/>
<polygon fill="black" stroke="black" points="1096.46,-79.83 1106.55,-76.59 1096.65,-72.83 1096.46,-79.83"/>
</g>
<!-- 2779334708832* -->
<g id="node6" class="node">
<title>2779334708832*</title>
<ellipse fill="none" stroke="black" cx="840.93" cy="-73.5" rx="27" ry="18"/>
<text xml:space="preserve" text-anchor="middle" x="840.93" y="-68.45" font-family="Times New Roman,serif" font-size="14.00">*</text>
</g>
<!-- 2779334708832*&#45;&gt;2779334708832 -->
<g id="edge3" class="edge">
<title>2779334708832*&#45;&gt;2779334708832</title>
<path fill="none" stroke="black" d="M868.32,-73.5C876.04,-73.5 884.95,-73.5 894.36,-73.5"/>
<polygon fill="black" stroke="black" points="894.08,-77 904.08,-73.5 894.08,-70 894.08,-77"/>
</g>
<!-- 2779334709360 -->
<g id="node7" class="node">
<title>2779334709360</title>
<polygon fill="none" stroke="black" points="1.12,-225.5 1.12,-261.5 166.62,-261.5 166.62,-225.5 1.12,-225.5"/>
<text xml:space="preserve" text-anchor="middle" x="43.25" y="-238.7" font-family="Times New Roman,serif" font-size="14.00">data &#45;1.0000</text>
<polyline fill="none" stroke="black" points="85.38,-226 85.38,-261.5"/>
<text xml:space="preserve" text-anchor="middle" x="126" y="-238.7" font-family="Times New Roman,serif" font-size="14.00">grad 2.0000</text>
</g>
<!-- 2779334709408* -->
<g id="node9" class="node">
<title>2779334709408*</title>
<ellipse fill="none" stroke="black" cx="230.75" cy="-235.5" rx="27" ry="18"/>
<text xml:space="preserve" text-anchor="middle" x="230.75" y="-230.45" font-family="Times New Roman,serif" font-size="14.00">*</text>
</g>
<!-- 2779334709360&#45;&gt;2779334709408* -->
<g id="edge15" class="edge">
<title>2779334709360&#45;&gt;2779334709408*</title>
<path fill="none" stroke="black" d="M167.05,-238.96C175.78,-238.48 184.33,-238.01 192.16,-237.58"/>
<polygon fill="black" stroke="black" points="192.13,-241.08 201.92,-237.04 191.74,-234.09 192.13,-241.08"/>
</g>
<!-- 2779334709408 -->
<g id="node8" class="node">
<title>2779334709408</title>
<polygon fill="none" stroke="black" points="1408.37,-201.5 1408.37,-237.5 1573.87,-237.5 1573.87,-201.5 1408.37,-201.5"/>
<text xml:space="preserve" text-anchor="middle" x="1450.49" y="-214.7" font-family="Times New Roman,serif" font-size="14.00">data &#45;2.0000</text>
<polyline fill="none" stroke="black" points="1492.62,-202 1492.62,-237.5"/>
<text xml:space="preserve" text-anchor="middle" x="1533.24" y="-214.7" font-family="Times New Roman,serif" font-size="14.00">grad 1.0000</text>
</g>
<!-- 2779334709600+ -->
<g id="node22" class="node">
<title>2779334709600+</title>
<ellipse fill="none" stroke="black" cx="1833.87" cy="-185.5" rx="27" ry="18"/>
<text xml:space="preserve" text-anchor="middle" x="1833.87" y="-180.45" font-family="Times New Roman,serif" font-size="14.00">+</text>
</g>
<!-- 2779334709408&#45;&gt;2779334709600+ -->
<g id="edge32" class="edge">
<title>2779334709408&#45;&gt;2779334709600+</title>
<path fill="none" stroke="black" d="M1574.17,-211.31C1644.66,-204.28 1743.02,-194.46 1795.84,-189.19"/>
<polygon fill="black" stroke="black" points="1795.9,-192.71 1805.5,-188.23 1795.2,-185.74 1795.9,-192.71"/>
</g>
<!-- 2779334709408*&#45;&gt;2779334709408 -->
<g id="edge4" class="edge">
<title>2779334709408*&#45;&gt;2779334709408</title>
<path fill="none" stroke="black" d="M258.07,-234.92C310.6,-233.81 432.22,-231.5 534.44,-231.5 534.44,-231.5 534.44,-231.5 1142.93,-231.5 1228.91,-231.5 1326.8,-227.78 1396.67,-224.48"/>
<polygon fill="black" stroke="black" points="1396.74,-227.98 1406.56,-224.01 1396.4,-220.99 1396.74,-227.98"/>
</g>
<!-- 2779334706864 -->
<g id="node10" class="node">
<title>2779334706864</title>
<polygon fill="none" stroke="black" points="0,-115.5 0,-151.5 167.75,-151.5 167.75,-115.5 0,-115.5"/>
<text xml:space="preserve" text-anchor="middle" x="43.25" y="-128.7" font-family="Times New Roman,serif" font-size="14.00">data 10.0000</text>
<polyline fill="none" stroke="black" points="86.5,-116 86.5,-151.5"/>
<text xml:space="preserve" text-anchor="middle" x="127.12" y="-128.7" font-family="Times New Roman,serif" font-size="14.00">grad 0.5556</text>
</g>
<!-- 2779334706864&#45;&gt;2779334707200+ -->
<g id="edge16" class="edge">
<title>2779334706864&#45;&gt;2779334707200+</title>
<path fill="none" stroke="black" d="M168.12,-132.57C266.21,-131.48 424.94,-129.72 496.87,-128.92"/>
<polygon fill="black" stroke="black" points="496.58,-132.42 506.54,-128.81 496.5,-125.42 496.58,-132.42"/>
</g>
<!-- 2779334707968+ -->
<g id="node17" class="node">
<title>2779334707968+</title>
<ellipse fill="none" stroke="black" cx="230.75" cy="-181.5" rx="27" ry="18"/>
<text xml:space="preserve" text-anchor="middle" x="230.75" y="-176.45" font-family="Times New Roman,serif" font-size="14.00">+</text>
</g>
<!-- 2779334706864&#45;&gt;2779334707968+ -->
<g id="edge21" class="edge">
<title>2779334706864&#45;&gt;2779334707968+</title>
<path fill="none" stroke="black" d="M140.47,-151.92C158.89,-158.02 178.84,-164.63 195.2,-170.05"/>
<polygon fill="black" stroke="black" points="193.86,-173.3 204.45,-173.12 196.06,-166.65 193.86,-173.3"/>
</g>
<!-- 2779334707392 -->
<g id="node11" class="node">
<title>2779334707392</title>
<polygon fill="none" stroke="black" points="904.74,-110.5 904.74,-146.5 1072.49,-146.5 1072.49,-110.5 904.74,-110.5"/>
<text xml:space="preserve" text-anchor="middle" x="947.99" y="-123.7" font-family="Times New Roman,serif" font-size="14.00">data 16.0000</text>
<polyline fill="none" stroke="black" points="991.24,-111 991.24,-146.5"/>
<text xml:space="preserve" text-anchor="middle" x="1031.87" y="-123.7" font-family="Times New Roman,serif" font-size="14.00">grad 0.0833</text>
</g>
<!-- 2779334707392&#45;&gt;2779334708544* -->
<g id="edge25" class="edge">
<title>2779334707392&#45;&gt;2779334708544*</title>
<path fill="none" stroke="black" d="M1072.8,-144.99C1083.93,-147.2 1094.84,-149.36 1104.56,-151.29"/>
<polygon fill="black" stroke="black" points="1103.78,-154.7 1114.27,-153.21 1105.14,-147.84 1103.78,-154.7"/>
</g>
<!-- 2779334707392**2&#45;&gt;2779334707392 -->
<g id="edge5" class="edge">
<title>2779334707392**2&#45;&gt;2779334707392</title>
<path fill="none" stroke="black" d="M868.32,-128.5C875.64,-128.5 884.04,-128.5 892.91,-128.5"/>
<polygon fill="black" stroke="black" points="892.85,-132 902.85,-128.5 892.85,-125 892.85,-132"/>
</g>
<!-- 2779334706912 -->
<g id="node13" class="node">
<title>2779334706912</title>
<polygon fill="none" stroke="black" points="1.12,-170.5 1.12,-206.5 166.62,-206.5 166.62,-170.5 1.12,-170.5"/>
<text xml:space="preserve" text-anchor="middle" x="41" y="-183.7" font-family="Times New Roman,serif" font-size="14.00">data 2.0000</text>
<polyline fill="none" stroke="black" points="80.88,-171 80.88,-206.5"/>
<text xml:space="preserve" text-anchor="middle" x="123.75" y="-183.7" font-family="Times New Roman,serif" font-size="14.00">grad &#45;3.1111</text>
</g>
<!-- 2779334706912&#45;&gt;2779334709408* -->
<g id="edge23" class="edge">
<title>2779334706912&#45;&gt;2779334709408*</title>
<path fill="none" stroke="black" d="M141.72,-206.94C159.88,-212.83 179.42,-219.17 195.46,-224.38"/>
<polygon fill="black" stroke="black" points="193.92,-227.56 204.51,-227.31 196.08,-220.9 193.92,-227.56"/>
</g>
<!-- 2779334706912&#45;&gt;2779334707968+ -->
<g id="edge14" class="edge">
<title>2779334706912&#45;&gt;2779334707968+</title>
<path fill="none" stroke="black" d="M167.05,-184.53C175.78,-184.11 184.33,-183.69 192.16,-183.32"/>
<polygon fill="black" stroke="black" points="192.1,-186.82 201.92,-182.84 191.76,-179.83 192.1,-186.82"/>
</g>
<!-- 2779334706672* -->
<g id="node30" class="node">
<title>2779334706672*</title>
<ellipse fill="none" stroke="black" cx="230.75" cy="-86.5" rx="27" ry="18"/>
<text xml:space="preserve" text-anchor="middle" x="230.75" y="-81.45" font-family="Times New Roman,serif" font-size="14.00">*</text>
</g>
<!-- 2779334706912&#45;&gt;2779334706672* -->
<g id="edge27" class="edge">
<title>2779334706912&#45;&gt;2779334706672*</title>
<path fill="none" stroke="black" d="M152.47,-170.15C157.83,-167.6 163,-164.73 167.75,-161.5 186.49,-148.75 202.61,-128.77 213.72,-112.63"/>
<polygon fill="black" stroke="black" points="216.54,-114.72 219.13,-104.45 210.7,-110.86 216.54,-114.72"/>
</g>
<!-- 2779334708976 -->
<g id="node14" class="node">
<title>2779334708976</title>
<polygon fill="none" stroke="black" points="1211.37,-82.5 1211.37,-118.5 1372.37,-118.5 1372.37,-82.5 1211.37,-82.5"/>
<text xml:space="preserve" text-anchor="middle" x="1251.24" y="-95.7" font-family="Times New Roman,serif" font-size="14.00">data 0.0000</text>
<polyline fill="none" stroke="black" points="1291.12,-83 1291.12,-118.5"/>
<text xml:space="preserve" text-anchor="middle" x="1331.74" y="-95.7" font-family="Times New Roman,serif" font-size="14.00">grad 1.0000</text>
</g>
<!-- 2779334709168+ -->
<g id="node28" class="node">
<title>2779334709168+</title>
<ellipse fill="none" stroke="black" cx="1491.12" cy="-158.5" rx="27" ry="18"/>
<text xml:space="preserve" text-anchor="middle" x="1491.12" y="-153.45" font-family="Times New Roman,serif" font-size="14.00">+</text>
</g>
<!-- 2779334708976&#45;&gt;2779334709168+ -->
<g id="edge31" class="edge">
<title>2779334708976&#45;&gt;2779334709168+</title>
<path fill="none" stroke="black" d="M1355.55,-118.93C1388.47,-128.61 1427.57,-140.11 1455.12,-148.21"/>
<polygon fill="black" stroke="black" points="1453.77,-151.46 1464.35,-150.92 1455.75,-144.74 1453.77,-151.46"/>
</g>
<!-- 2779334708976ReLU&#45;&gt;2779334708976 -->
<g id="edge6" class="edge">
<title>2779334708976ReLU&#45;&gt;2779334708976</title>
<path fill="none" stroke="black" d="M1174.3,-82.38C1182.08,-83.59 1190.82,-84.94 1199.91,-86.36"/>
<polygon fill="black" stroke="black" points="1199.23,-89.79 1209.65,-87.87 1200.3,-82.88 1199.23,-89.79"/>
</g>
<!-- 2779334707968 -->
<g id="node16" class="node">
<title>2779334707968</title>
<polygon fill="none" stroke="black" points="293.75,-165.5 293.75,-201.5 466,-201.5 466,-165.5 293.75,-165.5"/>
<text xml:space="preserve" text-anchor="middle" x="337" y="-178.7" font-family="Times New Roman,serif" font-size="14.00">data 12.0000</text>
<polyline fill="none" stroke="black" points="380.25,-166 380.25,-201.5"/>
<text xml:space="preserve" text-anchor="middle" x="423.12" y="-178.7" font-family="Times New Roman,serif" font-size="14.00">grad &#45;0.1111</text>
</g>
<!-- 2779334708112ReLU -->
<g id="node25" class="node">
<title>2779334708112ReLU</title>
<ellipse fill="none" stroke="black" cx="535.44" cy="-183.5" rx="33.44" ry="18"/>
<text xml:space="preserve" text-anchor="middle" x="535.44" y="-178.45" font-family="Times New Roman,serif" font-size="14.00">ReLU</text>
</g>
<!-- 2779334707968&#45;&gt;2779334708112ReLU -->
<g id="edge17" class="edge">
<title>2779334707968&#45;&gt;2779334708112ReLU</title>
<path fill="none" stroke="black" d="M466.19,-183.5C474.43,-183.5 482.55,-183.5 490.14,-183.5"/>
<polygon fill="black" stroke="black" points="490.07,-187 500.07,-183.5 490.07,-180 490.07,-187"/>
</g>
<!-- 2779334707968+&#45;&gt;2779334707968 -->
<g id="edge7" class="edge">
<title>2779334707968+&#45;&gt;2779334707968</title>
<path fill="none" stroke="black" d="M258.05,-181.86C265.26,-181.96 273.51,-182.07 282.25,-182.19"/>
<polygon fill="black" stroke="black" points="281.98,-185.68 292.02,-182.32 282.07,-178.68 281.98,-185.68"/>
</g>
<!-- 2779334706960 -->
<g id="node18" class="node">
<title>2779334706960</title>
<polygon fill="none" stroke="black" points="1.12,-60.5 1.12,-96.5 166.62,-96.5 166.62,-60.5 1.12,-60.5"/>
<text xml:space="preserve" text-anchor="middle" x="43.25" y="-73.7" font-family="Times New Roman,serif" font-size="14.00">data &#45;3.0000</text>
<polyline fill="none" stroke="black" points="85.38,-61 85.38,-96.5"/>
<text xml:space="preserve" text-anchor="middle" x="126" y="-73.7" font-family="Times New Roman,serif" font-size="14.00">grad 1.3333</text>
</g>
<!-- 2779334706960&#45;&gt;2779334706672* -->
<g id="edge18" class="edge">
<title>2779334706960&#45;&gt;2779334706672*</title>
<path fill="none" stroke="black" d="M167.05,-83.04C175.78,-83.52 184.33,-83.99 192.16,-84.42"/>
<polygon fill="black" stroke="black" points="191.74,-87.91 201.92,-84.96 192.13,-80.92 191.74,-87.91"/>
</g>
<!-- 2779334708544 -->
<g id="node19" class="node">
<title>2779334708544</title>
<polygon fill="none" stroke="black" points="1211.37,-140.5 1211.37,-176.5 1372.37,-176.5 1372.37,-140.5 1211.37,-140.5"/>
<text xml:space="preserve" text-anchor="middle" x="1251.24" y="-153.7" font-family="Times New Roman,serif" font-size="14.00">data 1.3333</text>
<polyline fill="none" stroke="black" points="1291.12,-141 1291.12,-176.5"/>
<text xml:space="preserve" text-anchor="middle" x="1331.74" y="-153.7" font-family="Times New Roman,serif" font-size="14.00">grad 1.0000</text>
</g>
<!-- 2779334708544&#45;&gt;2779334709168+ -->
<g id="edge19" class="edge">
<title>2779334708544&#45;&gt;2779334709168+</title>
<path fill="none" stroke="black" d="M1372.81,-158.5C1400.33,-158.5 1429.87,-158.5 1452.41,-158.5"/>
<polygon fill="black" stroke="black" points="1452.33,-162 1462.33,-158.5 1452.33,-155 1452.33,-162"/>
</g>
<!-- 2779334708544*&#45;&gt;2779334708544 -->
<g id="edge8" class="edge">
<title>2779334708544*&#45;&gt;2779334708544</title>
<path fill="none" stroke="black" d="M1169.38,-158.5C1178.29,-158.5 1188.8,-158.5 1199.85,-158.5"/>
<polygon fill="black" stroke="black" points="1199.52,-162 1209.52,-158.5 1199.52,-155 1199.52,-162"/>
</g>
<!-- 2779334709600 -->
<g id="node21" class="node">
<title>2779334709600</title>
<polygon fill="none" stroke="black" points="1896.87,-167.5 1896.87,-203.5 2062.37,-203.5 2062.37,-167.5 1896.87,-167.5"/>
<text xml:space="preserve" text-anchor="middle" x="1938.99" y="-180.7" font-family="Times New Roman,serif" font-size="14.00">data &#45;0.6667</text>
<polyline fill="none" stroke="black" points="1981.12,-168 1981.12,-203.5"/>
<text xml:space="preserve" text-anchor="middle" x="2021.74" y="-180.7" font-family="Times New Roman,serif" font-size="14.00">grad 1.0000</text>
</g>
<!-- 2779334709600+&#45;&gt;2779334709600 -->
<g id="edge9" class="edge">
<title>2779334709600+&#45;&gt;2779334709600</title>
<path fill="none" stroke="black" d="M1861.23,-185.5C1868.34,-185.5 1876.44,-185.5 1885.01,-185.5"/>
<polygon fill="black" stroke="black" points="1884.96,-189 1894.96,-185.5 1884.96,-182 1884.96,-189"/>
</g>
<!-- 2779334708592 -->
<g id="node23" class="node">
<title>2779334708592</title>
<polygon fill="none" stroke="black" points="610.5,-0.5 610.5,-36.5 771.5,-36.5 771.5,-0.5 610.5,-0.5"/>
<text xml:space="preserve" text-anchor="middle" x="650.38" y="-13.7" font-family="Times New Roman,serif" font-size="14.00">data 4.0000</text>
<polyline fill="none" stroke="black" points="690.25,-1 690.25,-36.5"/>
<text xml:space="preserve" text-anchor="middle" x="730.88" y="-13.7" font-family="Times New Roman,serif" font-size="14.00">grad 0.0000</text>
</g>
<!-- 2779334708592&#45;&gt;2779334708832* -->
<g id="edge29" class="edge">
<title>2779334708592&#45;&gt;2779334708832*</title>
<path fill="none" stroke="black" d="M753.2,-37C761.3,-39.71 769.45,-42.58 777.13,-45.5 787.37,-49.39 798.34,-54.1 808.21,-58.52"/>
<polygon fill="black" stroke="black" points="806.46,-61.57 817.01,-62.54 809.37,-55.21 806.46,-61.57"/>
</g>
<!-- 2779334708112 -->
<g id="node24" class="node">
<title>2779334708112</title>
<polygon fill="none" stroke="black" points="604.88,-165.5 604.88,-201.5 777.13,-201.5 777.13,-165.5 604.88,-165.5"/>
<text xml:space="preserve" text-anchor="middle" x="648.13" y="-178.7" font-family="Times New Roman,serif" font-size="14.00">data 12.0000</text>
<polyline fill="none" stroke="black" points="691.38,-166 691.38,-201.5"/>
<text xml:space="preserve" text-anchor="middle" x="734.25" y="-178.7" font-family="Times New Roman,serif" font-size="14.00">grad &#45;0.1111</text>
</g>
<!-- 2779334708112&#45;&gt;2779334708304**&#45;1 -->
<g id="edge13" class="edge">
<title>2779334708112&#45;&gt;2779334708304**&#45;1</title>
<path fill="none" stroke="black" d="M777.63,-183.5C785.83,-183.5 793.84,-183.5 801.23,-183.5"/>
<polygon fill="black" stroke="black" points="801.14,-187 811.14,-183.5 801.14,-180 801.14,-187"/>
</g>
<!-- 2779334708112ReLU&#45;&gt;2779334708112 -->
<g id="edge10" class="edge">
<title>2779334708112ReLU&#45;&gt;2779334708112</title>
<path fill="none" stroke="black" d="M569,-183.5C576.35,-183.5 584.52,-183.5 593.04,-183.5"/>
<polygon fill="black" stroke="black" points="592.89,-187 602.89,-183.5 592.89,-180 592.89,-187"/>
</g>
<!-- 2779334708640 -->
<g id="node26" class="node">
<title>2779334708640</title>
<polygon fill="none" stroke="black" points="608.25,-55.5 608.25,-91.5 773.75,-91.5 773.75,-55.5 608.25,-55.5"/>
<text xml:space="preserve" text-anchor="middle" x="650.38" y="-68.7" font-family="Times New Roman,serif" font-size="14.00">data &#45;1.0000</text>
<polyline fill="none" stroke="black" points="692.5,-56 692.5,-91.5"/>
<text xml:space="preserve" text-anchor="middle" x="733.13" y="-68.7" font-family="Times New Roman,serif" font-size="14.00">grad 0.0000</text>
</g>
<!-- 2779334708640&#45;&gt;2779334708832* -->
<g id="edge20" class="edge">
<title>2779334708640&#45;&gt;2779334708832*</title>
<path fill="none" stroke="black" d="M774.19,-73.5C783.97,-73.5 793.56,-73.5 802.26,-73.5"/>
<polygon fill="black" stroke="black" points="801.99,-77 811.99,-73.5 801.99,-70 801.99,-77"/>
</g>
<!-- 2779334709168 -->
<g id="node27" class="node">
<title>2779334709168</title>
<polygon fill="none" stroke="black" points="1609.87,-144.5 1609.87,-180.5 1770.87,-180.5 1770.87,-144.5 1609.87,-144.5"/>
<text xml:space="preserve" text-anchor="middle" x="1649.74" y="-157.7" font-family="Times New Roman,serif" font-size="14.00">data 1.3333</text>
<polyline fill="none" stroke="black" points="1689.62,-145 1689.62,-180.5"/>
<text xml:space="preserve" text-anchor="middle" x="1730.24" y="-157.7" font-family="Times New Roman,serif" font-size="14.00">grad 1.0000</text>
</g>
<!-- 2779334709168&#45;&gt;2779334709600+ -->
<g id="edge22" class="edge">
<title>2779334709168&#45;&gt;2779334709600+</title>
<path fill="none" stroke="black" d="M1771.22,-175.48C1779.88,-176.89 1788.35,-178.26 1796.11,-179.52"/>
<polygon fill="black" stroke="black" points="1795.34,-182.95 1805.77,-181.1 1796.46,-176.04 1795.34,-182.95"/>
</g>
<!-- 2779334709168+&#45;&gt;2779334709168 -->
<g id="edge11" class="edge">
<title>2779334709168+&#45;&gt;2779334709168</title>
<path fill="none" stroke="black" d="M1518.31,-159.03C1539.03,-159.45 1569.26,-160.06 1598.57,-160.66"/>
<polygon fill="black" stroke="black" points="1598.15,-164.15 1608.22,-160.85 1598.29,-157.15 1598.15,-164.15"/>
</g>
<!-- 2779334706672 -->
<g id="node29" class="node">
<title>2779334706672</title>
<polygon fill="none" stroke="black" points="297.12,-68.5 297.12,-104.5 462.62,-104.5 462.62,-68.5 297.12,-68.5"/>
<text xml:space="preserve" text-anchor="middle" x="339.25" y="-81.7" font-family="Times New Roman,serif" font-size="14.00">data &#45;6.0000</text>
<polyline fill="none" stroke="black" points="381.38,-69 381.38,-104.5"/>
<text xml:space="preserve" text-anchor="middle" x="422" y="-81.7" font-family="Times New Roman,serif" font-size="14.00">grad 0.6667</text>
</g>
<!-- 2779334706672&#45;&gt;2779334707200+ -->
<g id="edge24" class="edge">
<title>2779334706672&#45;&gt;2779334707200+</title>
<path fill="none" stroke="black" d="M448.23,-104.92C465.83,-109.73 484.09,-114.73 499.26,-118.88"/>
<polygon fill="black" stroke="black" points="498.16,-122.21 508.73,-121.47 500,-115.45 498.16,-122.21"/>
</g>
<!-- 2779334706672*&#45;&gt;2779334706672 -->
<g id="edge12" class="edge">
<title>2779334706672*&#45;&gt;2779334706672</title>
<path fill="none" stroke="black" d="M258.05,-86.5C266.1,-86.5 275.46,-86.5 285.33,-86.5"/>
<polygon fill="black" stroke="black" points="285.15,-90 295.15,-86.5 285.15,-83 285.15,-90"/>
</g>
</g>
</svg>
