<?xml version="1.0" encoding="UTF-8" standalone="no"?>
<!DOCTYPE svg PUBLIC "-//W3C//DTD SVG 1.1//EN"
 "http://www.w3.org/Graphics/SVG/1.1/DTD/svg11.dtd">
<!-- Generated by graphviz version 14.0.2 (20251019.1705)
 -->
<!-- Pages: 1 -->
<svg width="1339pt" height="210pt"
 viewBox="0.00 0.00 1339.00 210.00" xmlns="http://www.w3.org/2000/svg" xmlns:xlink="http://www.w3.org/1999/xlink">
<g id="graph0" class="graph" transform="scale(1 1) rotate(0) translate(4 206)">
<polygon fill="white" stroke="none" points="-4,4 -4,-206 1334.88,-206 1334.88,4 -4,4"/>
<!-- 2305415668768 -->
<g id="node1" class="node">
<title>2305415668768</title>
<polygon fill="none" stroke="black" points="870,-82.5 870,-118.5 1031,-118.5 1031,-82.5 870,-82.5"/>
<text xml:space="preserve" text-anchor="middle" x="909.88" y="-95.7" font-family="Times New Roman,serif" font-size="14.00">data 0.1024</text>
<polyline fill="none" stroke="black" points="949.75,-83 949.75,-118.5"/>
<text xml:space="preserve" text-anchor="middle" x="990.38" y="-95.7" font-family="Times New Roman,serif" font-size="14.00">grad 1.0000</text>
</g>
<!-- 2305415668816ReLU -->
<g id="node6" class="node">
<title>2305415668816ReLU</title>
<ellipse fill="none" stroke="black" cx="1100.44" cy="-100.5" rx="33.44" ry="18"/>
<text xml:space="preserve" text-anchor="middle" x="1100.44" y="-95.45" font-family="Times New Roman,serif" font-size="14.00">ReLU</text>
</g>
<!-- 2305415668768&#45;&gt;2305415668816ReLU -->
<g id="edge6" class="edge">
<title>2305415668768&#45;&gt;2305415668816ReLU</title>
<path fill="none" stroke="black" d="M1031.1,-100.5C1039.46,-100.5 1047.72,-100.5 1055.45,-100.5"/>
<polygon fill="black" stroke="black" points="1055.21,-104 1065.21,-100.5 1055.21,-97 1055.21,-104"/>
</g>
<!-- 2305415668768+ -->
<g id="node2" class="node">
<title>2305415668768+</title>
<ellipse fill="none" stroke="black" cx="807" cy="-100.5" rx="27" ry="18"/>
<text xml:space="preserve" text-anchor="middle" x="807" y="-95.45" font-family="Times New Roman,serif" font-size="14.00">+</text>
</g>
<!-- 2305415668768+&#45;&gt;2305415668768 -->
<g id="edge1" class="edge">
<title>2305415668768+&#45;&gt;2305415668768</title>
<path fill="none" stroke="black" d="M834.28,-100.5C841.4,-100.5 849.52,-100.5 858.08,-100.5"/>
<polygon fill="black" stroke="black" points="858.04,-104 868.04,-100.5 858.04,-97 858.04,-104"/>
</g>
<!-- 2305415667760 -->
<g id="node3" class="node">
<title>2305415667760</title>
<polygon fill="none" stroke="black" points="287,-55.5 287,-91.5 452.5,-91.5 452.5,-55.5 287,-55.5"/>
<text xml:space="preserve" text-anchor="middle" x="326.88" y="-68.7" font-family="Times New Roman,serif" font-size="14.00">data 0.0665</text>
<polyline fill="none" stroke="black" points="366.75,-56 366.75,-91.5"/>
<text xml:space="preserve" text-anchor="middle" x="409.62" y="-68.7" font-family="Times New Roman,serif" font-size="14.00">grad &#45;2.0000</text>
</g>
<!-- 2305415668576* -->
<g id="node13" class="node">
<title>2305415668576*</title>
<ellipse fill="none" stroke="black" cx="515.5" cy="-73.5" rx="27" ry="18"/>
<text xml:space="preserve" text-anchor="middle" x="515.5" y="-68.45" font-family="Times New Roman,serif" font-size="14.00">*</text>
</g>
<!-- 2305415667760&#45;&gt;2305415668576* -->
<g id="edge7" class="edge">
<title>2305415667760&#45;&gt;2305415668576*</title>
<path fill="none" stroke="black" d="M452.7,-73.5C461.14,-73.5 469.4,-73.5 476.98,-73.5"/>
<polygon fill="black" stroke="black" points="476.77,-77 486.77,-73.5 476.77,-70 476.77,-77"/>
</g>
<!-- 2305415543360 -->
<g id="node4" class="node">
<title>2305415543360</title>
<polygon fill="none" stroke="black" points="0,-138.5 0,-174.5 161,-174.5 161,-138.5 0,-138.5"/>
<text xml:space="preserve" text-anchor="middle" x="39.88" y="-151.7" font-family="Times New Roman,serif" font-size="14.00">data 0.2355</text>
<polyline fill="none" stroke="black" points="79.75,-139 79.75,-174.5"/>
<text xml:space="preserve" text-anchor="middle" x="120.38" y="-151.7" font-family="Times New Roman,serif" font-size="14.00">grad 1.0000</text>
</g>
<!-- 2305415668192* -->
<g id="node15" class="node">
<title>2305415668192*</title>
<ellipse fill="none" stroke="black" cx="224" cy="-128.5" rx="27" ry="18"/>
<text xml:space="preserve" text-anchor="middle" x="224" y="-123.45" font-family="Times New Roman,serif" font-size="14.00">*</text>
</g>
<!-- 2305415543360&#45;&gt;2305415668192* -->
<g id="edge11" class="edge">
<title>2305415543360&#45;&gt;2305415668192*</title>
<path fill="none" stroke="black" d="M161.35,-140.7C170.09,-138.97 178.64,-137.28 186.46,-135.73"/>
<polygon fill="black" stroke="black" points="187.08,-139.18 196.21,-133.8 185.72,-132.31 187.08,-139.18"/>
</g>
<!-- 2305415668816 -->
<g id="node5" class="node">
<title>2305415668816</title>
<polygon fill="none" stroke="black" points="1169.88,-82.5 1169.88,-118.5 1330.88,-118.5 1330.88,-82.5 1169.88,-82.5"/>
<text xml:space="preserve" text-anchor="middle" x="1209.75" y="-95.7" font-family="Times New Roman,serif" font-size="14.00">data 0.1024</text>
<polyline fill="none" stroke="black" points="1249.63,-83 1249.63,-118.5"/>
<text xml:space="preserve" text-anchor="middle" x="1290.25" y="-95.7" font-family="Times New Roman,serif" font-size="14.00">grad 1.0000</text>
</g>
<!-- 2305415668816ReLU&#45;&gt;2305415668816 -->
<g id="edge2" class="edge">
<title>2305415668816ReLU&#45;&gt;2305415668816</title>
<path fill="none" stroke="black" d="M1134.27,-100.5C1141.61,-100.5 1149.74,-100.5 1158.19,-100.5"/>
<polygon fill="black" stroke="black" points="1157.93,-104 1167.93,-100.5 1157.93,-97 1157.93,-104"/>
</g>
<!-- 2305415667808 -->
<g id="node7" class="node">
<title>2305415667808</title>
<polygon fill="none" stroke="black" points="289.25,-165.5 289.25,-201.5 450.25,-201.5 450.25,-165.5 289.25,-165.5"/>
<text xml:space="preserve" text-anchor="middle" x="329.12" y="-178.7" font-family="Times New Roman,serif" font-size="14.00">data 0.0000</text>
<polyline fill="none" stroke="black" points="369,-166 369,-201.5"/>
<text xml:space="preserve" text-anchor="middle" x="409.62" y="-178.7" font-family="Times New Roman,serif" font-size="14.00">grad 1.0000</text>
</g>
<!-- 2305415668384+ -->
<g id="node10" class="node">
<title>2305415668384+</title>
<ellipse fill="none" stroke="black" cx="515.5" cy="-128.5" rx="27" ry="18"/>
<text xml:space="preserve" text-anchor="middle" x="515.5" y="-123.45" font-family="Times New Roman,serif" font-size="14.00">+</text>
</g>
<!-- 2305415667808&#45;&gt;2305415668384+ -->
<g id="edge10" class="edge">
<title>2305415667808&#45;&gt;2305415668384+</title>
<path fill="none" stroke="black" d="M429.08,-165.07C436.99,-162.33 444.98,-159.43 452.5,-156.5 462.41,-152.64 473.03,-148.02 482.62,-143.67"/>
<polygon fill="black" stroke="black" points="483.94,-146.92 491.56,-139.55 481.01,-140.56 483.94,-146.92"/>
</g>
<!-- 2305415667856 -->
<g id="node8" class="node">
<title>2305415667856</title>
<polygon fill="none" stroke="black" points="0,-83.5 0,-119.5 161,-119.5 161,-83.5 0,-83.5"/>
<text xml:space="preserve" text-anchor="middle" x="39.88" y="-96.7" font-family="Times New Roman,serif" font-size="14.00">data 1.0000</text>
<polyline fill="none" stroke="black" points="79.75,-84 79.75,-119.5"/>
<text xml:space="preserve" text-anchor="middle" x="120.38" y="-96.7" font-family="Times New Roman,serif" font-size="14.00">grad 0.2355</text>
</g>
<!-- 2305415667856&#45;&gt;2305415668192* -->
<g id="edge9" class="edge">
<title>2305415667856&#45;&gt;2305415668192*</title>
<path fill="none" stroke="black" d="M161.35,-116.74C170.09,-118.4 178.64,-120.04 186.46,-121.53"/>
<polygon fill="black" stroke="black" points="185.73,-124.95 196.21,-123.39 187.04,-118.08 185.73,-124.95"/>
</g>
<!-- 2305415668384 -->
<g id="node9" class="node">
<title>2305415668384</title>
<polygon fill="none" stroke="black" points="580.75,-110.5 580.75,-146.5 741.75,-146.5 741.75,-110.5 580.75,-110.5"/>
<text xml:space="preserve" text-anchor="middle" x="620.62" y="-123.7" font-family="Times New Roman,serif" font-size="14.00">data 0.2355</text>
<polyline fill="none" stroke="black" points="660.5,-111 660.5,-146.5"/>
<text xml:space="preserve" text-anchor="middle" x="701.12" y="-123.7" font-family="Times New Roman,serif" font-size="14.00">grad 1.0000</text>
</g>
<!-- 2305415668384&#45;&gt;2305415668768+ -->
<g id="edge8" class="edge">
<title>2305415668384&#45;&gt;2305415668768+</title>
<path fill="none" stroke="black" d="M742.11,-112.94C751.6,-111.1 760.9,-109.28 769.34,-107.64"/>
<polygon fill="black" stroke="black" points="769.99,-111.08 779.14,-105.73 768.66,-104.21 769.99,-111.08"/>
</g>
<!-- 2305415668384+&#45;&gt;2305415668384 -->
<g id="edge3" class="edge">
<title>2305415668384+&#45;&gt;2305415668384</title>
<path fill="none" stroke="black" d="M542.87,-128.5C550.67,-128.5 559.7,-128.5 569.2,-128.5"/>
<polygon fill="black" stroke="black" points="569.02,-132 579.02,-128.5 569.02,-125 569.02,-132"/>
</g>
<!-- 2305415667904 -->
<g id="node11" class="node">
<title>2305415667904</title>
<polygon fill="none" stroke="black" points="287,-0.5 287,-36.5 452.5,-36.5 452.5,-0.5 287,-0.5"/>
<text xml:space="preserve" text-anchor="middle" x="329.12" y="-13.7" font-family="Times New Roman,serif" font-size="14.00">data &#45;2.0000</text>
<polyline fill="none" stroke="black" points="371.25,-1 371.25,-36.5"/>
<text xml:space="preserve" text-anchor="middle" x="411.88" y="-13.7" font-family="Times New Roman,serif" font-size="14.00">grad 0.0665</text>
</g>
<!-- 2305415667904&#45;&gt;2305415668576* -->
<g id="edge13" class="edge">
<title>2305415667904&#45;&gt;2305415668576*</title>
<path fill="none" stroke="black" d="M426.38,-36.88C435.16,-39.97 444.11,-43.24 452.5,-46.5 462.28,-50.3 472.79,-54.73 482.32,-58.9"/>
<polygon fill="black" stroke="black" points="480.64,-61.98 491.2,-62.83 483.47,-55.58 480.64,-61.98"/>
</g>
<!-- 2305415668576 -->
<g id="node12" class="node">
<title>2305415668576</title>
<polygon fill="none" stroke="black" points="578.5,-55.5 578.5,-91.5 744,-91.5 744,-55.5 578.5,-55.5"/>
<text xml:space="preserve" text-anchor="middle" x="620.62" y="-68.7" font-family="Times New Roman,serif" font-size="14.00">data &#45;0.1331</text>
<polyline fill="none" stroke="black" points="662.75,-56 662.75,-91.5"/>
<text xml:space="preserve" text-anchor="middle" x="703.38" y="-68.7" font-family="Times New Roman,serif" font-size="14.00">grad 1.0000</text>
</g>
<!-- 2305415668576&#45;&gt;2305415668768+ -->
<g id="edge14" class="edge">
<title>2305415668576&#45;&gt;2305415668768+</title>
<path fill="none" stroke="black" d="M744.2,-88.89C753,-90.54 761.58,-92.16 769.42,-93.63"/>
<polygon fill="black" stroke="black" points="768.72,-97.06 779.2,-95.47 770.01,-90.18 768.72,-97.06"/>
</g>
<!-- 2305415668576*&#45;&gt;2305415668576 -->
<g id="edge4" class="edge">
<title>2305415668576*&#45;&gt;2305415668576</title>
<path fill="none" stroke="black" d="M542.87,-73.5C549.97,-73.5 558.07,-73.5 566.64,-73.5"/>
<polygon fill="black" stroke="black" points="566.59,-77 576.59,-73.5 566.59,-70 566.59,-77"/>
</g>
<!-- 2305415668192 -->
<g id="node14" class="node">
<title>2305415668192</title>
<polygon fill="none" stroke="black" points="289.25,-110.5 289.25,-146.5 450.25,-146.5 450.25,-110.5 289.25,-110.5"/>
<text xml:space="preserve" text-anchor="middle" x="329.12" y="-123.7" font-family="Times New Roman,serif" font-size="14.00">data 0.2355</text>
<polyline fill="none" stroke="black" points="369,-111 369,-146.5"/>
<text xml:space="preserve" text-anchor="middle" x="409.62" y="-123.7" font-family="Times New Roman,serif" font-size="14.00">grad 1.0000</text>
</g>
<!-- 2305415668192&#45;&gt;2305415668384+ -->
<g id="edge12" class="edge">
<title>2305415668192&#45;&gt;2305415668384+</title>
<path fill="none" stroke="black" d="M450.61,-128.5C459.73,-128.5 468.67,-128.5 476.85,-128.5"/>
<polygon fill="black" stroke="black" points="476.69,-132 486.69,-128.5 476.69,-125 476.69,-132"/>
</g>
<!-- 2305415668192*&#45;&gt;2305415668192 -->
<g id="edge5" class="edge">
<title>2305415668192*&#45;&gt;2305415668192</title>
<path fill="none" stroke="black" d="M251.37,-128.5C259.17,-128.5 268.2,-128.5 277.7,-128.5"/>
<polygon fill="black" stroke="black" points="277.52,-132 287.52,-128.5 277.52,-125 277.52,-132"/>
</g>
</g>
</svg>
