<?xml version="1.0" encoding="UTF-8" standalone="no"?>
<!DOCTYPE svg PUBLIC "-//W3C//DTD SVG 1.1//EN"
 "http://www.w3.org/Graphics/SVG/1.1/DTD/svg11.dtd">
<!-- Generated by graphviz version 14.0.2 (20251019.1705)
 -->
<!-- Pages: 1 -->
<svg width="1339pt" height="237pt"
 viewBox="0.00 0.00 1339.00 237.00" xmlns="http://www.w3.org/2000/svg" xmlns:xlink="http://www.w3.org/1999/xlink">
<g id="graph0" class="graph" transform="scale(1 1) rotate(0) translate(4 233)">
<polygon fill="white" stroke="none" points="-4,4 -4,-233 1334.88,-233 1334.88,4 -4,4"/>
<!-- 2779334719536 -->
<g id="node1" class="node">
<title>2779334719536</title>
<polygon fill="none" stroke="black" points="289.25,-27.5 289.25,-63.5 450.25,-63.5 450.25,-27.5 289.25,-27.5"/>
<text xml:space="preserve" text-anchor="middle" x="329.12" y="-40.7" font-family="Times New Roman,serif" font-size="14.00">data 0.2355</text>
<polyline fill="none" stroke="black" points="369,-28 369,-63.5"/>
<text xml:space="preserve" text-anchor="middle" x="409.62" y="-40.7" font-family="Times New Roman,serif" font-size="14.00">grad 1.0000</text>
</g>
<!-- 2779334719728+ -->
<g id="node10" class="node">
<title>2779334719728+</title>
<ellipse fill="none" stroke="black" cx="515.5" cy="-100.5" rx="27" ry="18"/>
<text xml:space="preserve" text-anchor="middle" x="515.5" y="-95.45" font-family="Times New Roman,serif" font-size="14.00">+</text>
</g>
<!-- 2779334719536&#45;&gt;2779334719728+ -->
<g id="edge13" class="edge">
<title>2779334719536&#45;&gt;2779334719728+</title>
<path fill="none" stroke="black" d="M426.38,-63.88C435.16,-66.97 444.11,-70.24 452.5,-73.5 462.28,-77.3 472.79,-81.73 482.32,-85.9"/>
<polygon fill="black" stroke="black" points="480.64,-88.98 491.2,-89.83 483.47,-82.58 480.64,-88.98"/>
</g>
<!-- 2779334719536* -->
<g id="node2" class="node">
<title>2779334719536*</title>
<ellipse fill="none" stroke="black" cx="224" cy="-45.5" rx="27" ry="18"/>
<text xml:space="preserve" text-anchor="middle" x="224" y="-40.45" font-family="Times New Roman,serif" font-size="14.00">*</text>
</g>
<!-- 2779334719536*&#45;&gt;2779334719536 -->
<g id="edge1" class="edge">
<title>2779334719536*&#45;&gt;2779334719536</title>
<path fill="none" stroke="black" d="M251.37,-45.5C259.17,-45.5 268.2,-45.5 277.7,-45.5"/>
<polygon fill="black" stroke="black" points="277.52,-49 287.52,-45.5 277.52,-42 277.52,-49"/>
</g>
<!-- 2779334720112 -->
<g id="node3" class="node">
<title>2779334720112</title>
<polygon fill="none" stroke="black" points="870,-109.5 870,-145.5 1031,-145.5 1031,-109.5 870,-109.5"/>
<text xml:space="preserve" text-anchor="middle" x="909.88" y="-122.7" font-family="Times New Roman,serif" font-size="14.00">data 0.1024</text>
<polyline fill="none" stroke="black" points="949.75,-110 949.75,-145.5"/>
<text xml:space="preserve" text-anchor="middle" x="990.38" y="-122.7" font-family="Times New Roman,serif" font-size="14.00">grad 1.0000</text>
</g>
<!-- 2779334720160ReLU -->
<g id="node6" class="node">
<title>2779334720160ReLU</title>
<ellipse fill="none" stroke="black" cx="1100.44" cy="-127.5" rx="33.44" ry="18"/>
<text xml:space="preserve" text-anchor="middle" x="1100.44" y="-122.45" font-family="Times New Roman,serif" font-size="14.00">ReLU</text>
</g>
<!-- 2779334720112&#45;&gt;2779334720160ReLU -->
<g id="edge6" class="edge">
<title>2779334720112&#45;&gt;2779334720160ReLU</title>
<path fill="none" stroke="black" d="M1031.1,-127.5C1039.46,-127.5 1047.72,-127.5 1055.45,-127.5"/>
<polygon fill="black" stroke="black" points="1055.21,-131 1065.21,-127.5 1055.21,-124 1055.21,-131"/>
</g>
<!-- 2779334720112+ -->
<g id="node4" class="node">
<title>2779334720112+</title>
<ellipse fill="none" stroke="black" cx="807" cy="-127.5" rx="27" ry="18"/>
<text xml:space="preserve" text-anchor="middle" x="807" y="-122.45" font-family="Times New Roman,serif" font-size="14.00">+</text>
</g>
<!-- 2779334720112+&#45;&gt;2779334720112 -->
<g id="edge2" class="edge">
<title>2779334720112+&#45;&gt;2779334720112</title>
<path fill="none" stroke="black" d="M834.28,-127.5C841.4,-127.5 849.52,-127.5 858.08,-127.5"/>
<polygon fill="black" stroke="black" points="858.04,-131 868.04,-127.5 858.04,-124 858.04,-131"/>
</g>
<!-- 2779334720160 -->
<g id="node5" class="node">
<title>2779334720160</title>
<polygon fill="none" stroke="black" points="1169.88,-109.5 1169.88,-145.5 1330.88,-145.5 1330.88,-109.5 1169.88,-109.5"/>
<text xml:space="preserve" text-anchor="middle" x="1209.75" y="-122.7" font-family="Times New Roman,serif" font-size="14.00">data 0.1024</text>
<polyline fill="none" stroke="black" points="1249.63,-110 1249.63,-145.5"/>
<text xml:space="preserve" text-anchor="middle" x="1290.25" y="-122.7" font-family="Times New Roman,serif" font-size="14.00">grad 1.0000</text>
</g>
<!-- 2779334720160ReLU&#45;&gt;2779334720160 -->
<g id="edge3" class="edge">
<title>2779334720160ReLU&#45;&gt;2779334720160</title>
<path fill="none" stroke="black" d="M1134.27,-127.5C1141.61,-127.5 1149.74,-127.5 1158.19,-127.5"/>
<polygon fill="black" stroke="black" points="1157.93,-131 1167.93,-127.5 1157.93,-124 1157.93,-131"/>
</g>
<!-- 2779334719152 -->
<g id="node7" class="node">
<title>2779334719152</title>
<polygon fill="none" stroke="black" points="289.25,-82.5 289.25,-118.5 450.25,-118.5 450.25,-82.5 289.25,-82.5"/>
<text xml:space="preserve" text-anchor="middle" x="329.12" y="-95.7" font-family="Times New Roman,serif" font-size="14.00">data 0.0000</text>
<polyline fill="none" stroke="black" points="369,-83 369,-118.5"/>
<text xml:space="preserve" text-anchor="middle" x="409.62" y="-95.7" font-family="Times New Roman,serif" font-size="14.00">grad 1.0000</text>
</g>
<!-- 2779334719152&#45;&gt;2779334719728+ -->
<g id="edge11" class="edge">
<title>2779334719152&#45;&gt;2779334719728+</title>
<path fill="none" stroke="black" d="M450.61,-100.5C459.73,-100.5 468.67,-100.5 476.85,-100.5"/>
<polygon fill="black" stroke="black" points="476.69,-104 486.69,-100.5 476.69,-97 476.69,-104"/>
</g>
<!-- 2779334719200 -->
<g id="node8" class="node">
<title>2779334719200</title>
<polygon fill="none" stroke="black" points="0,-55.5 0,-91.5 161,-91.5 161,-55.5 0,-55.5"/>
<text xml:space="preserve" text-anchor="middle" x="39.88" y="-68.7" font-family="Times New Roman,serif" font-size="14.00">data 1.0000</text>
<polyline fill="none" stroke="black" points="79.75,-56 79.75,-91.5"/>
<text xml:space="preserve" text-anchor="middle" x="120.38" y="-68.7" font-family="Times New Roman,serif" font-size="14.00">grad 0.2355</text>
</g>
<!-- 2779334719200&#45;&gt;2779334719536* -->
<g id="edge10" class="edge">
<title>2779334719200&#45;&gt;2779334719536*</title>
<path fill="none" stroke="black" d="M161.35,-57.7C170.09,-55.97 178.64,-54.28 186.46,-52.73"/>
<polygon fill="black" stroke="black" points="187.08,-56.18 196.21,-50.8 185.72,-49.31 187.08,-56.18"/>
</g>
<!-- 2779334719728 -->
<g id="node9" class="node">
<title>2779334719728</title>
<polygon fill="none" stroke="black" points="580.75,-82.5 580.75,-118.5 741.75,-118.5 741.75,-82.5 580.75,-82.5"/>
<text xml:space="preserve" text-anchor="middle" x="620.62" y="-95.7" font-family="Times New Roman,serif" font-size="14.00">data 0.2355</text>
<polyline fill="none" stroke="black" points="660.5,-83 660.5,-118.5"/>
<text xml:space="preserve" text-anchor="middle" x="701.12" y="-95.7" font-family="Times New Roman,serif" font-size="14.00">grad 1.0000</text>
</g>
<!-- 2779334719728&#45;&gt;2779334720112+ -->
<g id="edge8" class="edge">
<title>2779334719728&#45;&gt;2779334720112+</title>
<path fill="none" stroke="black" d="M742.11,-115.5C751.6,-117.28 760.9,-119.03 769.34,-120.61"/>
<polygon fill="black" stroke="black" points="768.66,-124.05 779.14,-122.45 769.96,-117.17 768.66,-124.05"/>
</g>
<!-- 2779334719728+&#45;&gt;2779334719728 -->
<g id="edge4" class="edge">
<title>2779334719728+&#45;&gt;2779334719728</title>
<path fill="none" stroke="black" d="M542.87,-100.5C550.67,-100.5 559.7,-100.5 569.2,-100.5"/>
<polygon fill="black" stroke="black" points="569.02,-104 579.02,-100.5 569.02,-97 569.02,-104"/>
</g>
<!-- 2779334709984 -->
<g id="node11" class="node">
<title>2779334709984</title>
<polygon fill="none" stroke="black" points="0,-0.5 0,-36.5 161,-36.5 161,-0.5 0,-0.5"/>
<text xml:space="preserve" text-anchor="middle" x="39.88" y="-13.7" font-family="Times New Roman,serif" font-size="14.00">data 0.2355</text>
<polyline fill="none" stroke="black" points="79.75,-1 79.75,-36.5"/>
<text xml:space="preserve" text-anchor="middle" x="120.38" y="-13.7" font-family="Times New Roman,serif" font-size="14.00">grad 1.0000</text>
</g>
<!-- 2779334709984&#45;&gt;2779334719536* -->
<g id="edge12" class="edge">
<title>2779334709984&#45;&gt;2779334719536*</title>
<path fill="none" stroke="black" d="M161.35,-33.74C170.09,-35.4 178.64,-37.04 186.46,-38.53"/>
<polygon fill="black" stroke="black" points="185.73,-41.95 196.21,-40.39 187.04,-35.08 185.73,-41.95"/>
</g>
<!-- 2779334710032 -->
<g id="node12" class="node">
<title>2779334710032</title>
<polygon fill="none" stroke="black" points="287,-192.5 287,-228.5 452.5,-228.5 452.5,-192.5 287,-192.5"/>
<text xml:space="preserve" text-anchor="middle" x="326.88" y="-205.7" font-family="Times New Roman,serif" font-size="14.00">data 0.0665</text>
<polyline fill="none" stroke="black" points="366.75,-193 366.75,-228.5"/>
<text xml:space="preserve" text-anchor="middle" x="409.62" y="-205.7" font-family="Times New Roman,serif" font-size="14.00">grad &#45;2.0000</text>
</g>
<!-- 2779334719920* -->
<g id="node15" class="node">
<title>2779334719920*</title>
<ellipse fill="none" stroke="black" cx="515.5" cy="-155.5" rx="27" ry="18"/>
<text xml:space="preserve" text-anchor="middle" x="515.5" y="-150.45" font-family="Times New Roman,serif" font-size="14.00">*</text>
</g>
<!-- 2779334710032&#45;&gt;2779334719920* -->
<g id="edge7" class="edge">
<title>2779334710032&#45;&gt;2779334719920*</title>
<path fill="none" stroke="black" d="M429.08,-192.07C436.99,-189.33 444.98,-186.43 452.5,-183.5 462.41,-179.64 473.03,-175.02 482.62,-170.67"/>
<polygon fill="black" stroke="black" points="483.94,-173.92 491.56,-166.55 481.01,-167.56 483.94,-173.92"/>
</g>
<!-- 2779334719248 -->
<g id="node13" class="node">
<title>2779334719248</title>
<polygon fill="none" stroke="black" points="287,-137.5 287,-173.5 452.5,-173.5 452.5,-137.5 287,-137.5"/>
<text xml:space="preserve" text-anchor="middle" x="329.12" y="-150.7" font-family="Times New Roman,serif" font-size="14.00">data &#45;2.0000</text>
<polyline fill="none" stroke="black" points="371.25,-138 371.25,-173.5"/>
<text xml:space="preserve" text-anchor="middle" x="411.88" y="-150.7" font-family="Times New Roman,serif" font-size="14.00">grad 0.0665</text>
</g>
<!-- 2779334719248&#45;&gt;2779334719920* -->
<g id="edge14" class="edge">
<title>2779334719248&#45;&gt;2779334719920*</title>
<path fill="none" stroke="black" d="M452.7,-155.5C461.14,-155.5 469.4,-155.5 476.98,-155.5"/>
<polygon fill="black" stroke="black" points="476.77,-159 486.77,-155.5 476.77,-152 476.77,-159"/>
</g>
<!-- 2779334719920 -->
<g id="node14" class="node">
<title>2779334719920</title>
<polygon fill="none" stroke="black" points="578.5,-137.5 578.5,-173.5 744,-173.5 744,-137.5 578.5,-137.5"/>
<text xml:space="preserve" text-anchor="middle" x="620.62" y="-150.7" font-family="Times New Roman,serif" font-size="14.00">data &#45;0.1331</text>
<polyline fill="none" stroke="black" points="662.75,-138 662.75,-173.5"/>
<text xml:space="preserve" text-anchor="middle" x="703.38" y="-150.7" font-family="Times New Roman,serif" font-size="14.00">grad 1.0000</text>
</g>
<!-- 2779334719920&#45;&gt;2779334720112+ -->
<g id="edge9" class="edge">
<title>2779334719920&#45;&gt;2779334720112+</title>
<path fill="none" stroke="black" d="M744.2,-139.54C753,-137.82 761.58,-136.15 769.42,-134.62"/>
<polygon fill="black" stroke="black" points="770.05,-138.07 779.2,-132.72 768.71,-131.2 770.05,-138.07"/>
</g>
<!-- 2779334719920*&#45;&gt;2779334719920 -->
<g id="edge5" class="edge">
<title>2779334719920*&#45;&gt;2779334719920</title>
<path fill="none" stroke="black" d="M542.87,-155.5C549.97,-155.5 558.07,-155.5 566.64,-155.5"/>
<polygon fill="black" stroke="black" points="566.59,-159 576.59,-155.5 566.59,-152 566.59,-159"/>
</g>
</g>
</svg>
