<?xml version="1.0" encoding="UTF-8" standalone="no"?>
<!DOCTYPE svg PUBLIC "-//W3C//DTD SVG 1.1//EN"
 "http://www.w3.org/Graphics/SVG/1.1/DTD/svg11.dtd">
<!-- Generated by graphviz version 14.0.2 (20251019.1705)
 -->
<!-- Pages: 1 -->
<svg width="1043pt" height="128pt"
 viewBox="0.00 0.00 1043.00 128.00" xmlns="http://www.w3.org/2000/svg" xmlns:xlink="http://www.w3.org/1999/xlink">
<g id="graph0" class="graph" transform="scale(1 1) rotate(0) translate(4 124)">
<polygon fill="white" stroke="none" points="-4,4 -4,-124 1038.88,-124 1038.88,4 -4,4"/>
<!-- 2779334706288 -->
<g id="node1" class="node">
<title>2779334706288</title>
<polygon fill="none" stroke="black" points="873.88,-27.5 873.88,-63.5 1034.88,-63.5 1034.88,-27.5 873.88,-27.5"/>
<text xml:space="preserve" text-anchor="middle" x="913.75" y="-40.7" font-family="Times New Roman,serif" font-size="14.00">data 3.0000</text>
<polyline fill="none" stroke="black" points="953.63,-28 953.63,-63.5"/>
<text xml:space="preserve" text-anchor="middle" x="994.25" y="-40.7" font-family="Times New Roman,serif" font-size="14.00">grad 1.0000</text>
</g>
<!-- 2779334706288ReLU -->
<g id="node2" class="node">
<title>2779334706288ReLU</title>
<ellipse fill="none" stroke="black" cx="804.44" cy="-45.5" rx="33.44" ry="18"/>
<text xml:space="preserve" text-anchor="middle" x="804.44" y="-40.45" font-family="Times New Roman,serif" font-size="14.00">ReLU</text>
</g>
<!-- 2779334706288ReLU&#45;&gt;2779334706288 -->
<g id="edge1" class="edge">
<title>2779334706288ReLU&#45;&gt;2779334706288</title>
<path fill="none" stroke="black" d="M838.27,-45.5C845.61,-45.5 853.74,-45.5 862.19,-45.5"/>
<polygon fill="black" stroke="black" points="861.93,-49 871.93,-45.5 861.93,-42 861.93,-49"/>
</g>
<!-- 2779334705328 -->
<g id="node3" class="node">
<title>2779334705328</title>
<polygon fill="none" stroke="black" points="0,-83.5 0,-119.5 161,-119.5 161,-83.5 0,-83.5"/>
<text xml:space="preserve" text-anchor="middle" x="39.88" y="-96.7" font-family="Times New Roman,serif" font-size="14.00">data 2.0000</text>
<polyline fill="none" stroke="black" points="79.75,-84 79.75,-119.5"/>
<text xml:space="preserve" text-anchor="middle" x="120.38" y="-96.7" font-family="Times New Roman,serif" font-size="14.00">grad 1.0000</text>
</g>
<!-- 2779334705472* -->
<g id="node5" class="node">
<title>2779334705472*</title>
<ellipse fill="none" stroke="black" cx="224" cy="-73.5" rx="27" ry="18"/>
<text xml:space="preserve" text-anchor="middle" x="224" y="-68.45" font-family="Times New Roman,serif" font-size="14.00">*</text>
</g>
<!-- 2779334705328&#45;&gt;2779334705472* -->
<g id="edge8" class="edge">
<title>2779334705328&#45;&gt;2779334705472*</title>
<path fill="none" stroke="black" d="M161.35,-85.7C170.09,-83.97 178.64,-82.28 186.46,-80.73"/>
<polygon fill="black" stroke="black" points="187.08,-84.18 196.21,-78.8 185.72,-77.31 187.08,-84.18"/>
</g>
<!-- 2779334705472 -->
<g id="node4" class="node">
<title>2779334705472</title>
<polygon fill="none" stroke="black" points="287,-55.5 287,-91.5 448,-91.5 448,-55.5 287,-55.5"/>
<text xml:space="preserve" text-anchor="middle" x="326.88" y="-68.7" font-family="Times New Roman,serif" font-size="14.00">data 2.0000</text>
<polyline fill="none" stroke="black" points="366.75,-56 366.75,-91.5"/>
<text xml:space="preserve" text-anchor="middle" x="407.38" y="-68.7" font-family="Times New Roman,serif" font-size="14.00">grad 1.0000</text>
</g>
<!-- 2779334706144+ -->
<g id="node9" class="node">
<title>2779334706144+</title>
<ellipse fill="none" stroke="black" cx="511" cy="-45.5" rx="27" ry="18"/>
<text xml:space="preserve" text-anchor="middle" x="511" y="-40.45" font-family="Times New Roman,serif" font-size="14.00">+</text>
</g>
<!-- 2779334705472&#45;&gt;2779334706144+ -->
<g id="edge7" class="edge">
<title>2779334705472&#45;&gt;2779334706144+</title>
<path fill="none" stroke="black" d="M448.35,-57.7C457.09,-55.97 465.64,-54.28 473.46,-52.73"/>
<polygon fill="black" stroke="black" points="474.08,-56.18 483.21,-50.8 472.72,-49.31 474.08,-56.18"/>
</g>
<!-- 2779334705472*&#45;&gt;2779334705472 -->
<g id="edge2" class="edge">
<title>2779334705472*&#45;&gt;2779334705472</title>
<path fill="none" stroke="black" d="M251.28,-73.5C258.4,-73.5 266.52,-73.5 275.08,-73.5"/>
<polygon fill="black" stroke="black" points="275.04,-77 285.04,-73.5 275.04,-70 275.04,-77"/>
</g>
<!-- 2779334706096 -->
<g id="node6" class="node">
<title>2779334706096</title>
<polygon fill="none" stroke="black" points="287,-0.5 287,-36.5 448,-36.5 448,-0.5 287,-0.5"/>
<text xml:space="preserve" text-anchor="middle" x="326.88" y="-13.7" font-family="Times New Roman,serif" font-size="14.00">data 1.0000</text>
<polyline fill="none" stroke="black" points="366.75,-1 366.75,-36.5"/>
<text xml:space="preserve" text-anchor="middle" x="407.38" y="-13.7" font-family="Times New Roman,serif" font-size="14.00">grad 1.0000</text>
</g>
<!-- 2779334706096&#45;&gt;2779334706144+ -->
<g id="edge4" class="edge">
<title>2779334706096&#45;&gt;2779334706144+</title>
<path fill="none" stroke="black" d="M448.35,-33.74C457.09,-35.4 465.64,-37.04 473.46,-38.53"/>
<polygon fill="black" stroke="black" points="472.73,-41.95 483.21,-40.39 474.04,-35.08 472.73,-41.95"/>
</g>
<!-- 2779303656384 -->
<g id="node7" class="node">
<title>2779303656384</title>
<polygon fill="none" stroke="black" points="0,-28.5 0,-64.5 161,-64.5 161,-28.5 0,-28.5"/>
<text xml:space="preserve" text-anchor="middle" x="39.88" y="-41.7" font-family="Times New Roman,serif" font-size="14.00">data 1.0000</text>
<polyline fill="none" stroke="black" points="79.75,-29 79.75,-64.5"/>
<text xml:space="preserve" text-anchor="middle" x="120.38" y="-41.7" font-family="Times New Roman,serif" font-size="14.00">grad 2.0000</text>
</g>
<!-- 2779303656384&#45;&gt;2779334705472* -->
<g id="edge6" class="edge">
<title>2779303656384&#45;&gt;2779334705472*</title>
<path fill="none" stroke="black" d="M161.35,-61.74C170.09,-63.4 178.64,-65.04 186.46,-66.53"/>
<polygon fill="black" stroke="black" points="185.73,-69.95 196.21,-68.39 187.04,-63.08 185.73,-69.95"/>
</g>
<!-- 2779334706144 -->
<g id="node8" class="node">
<title>2779334706144</title>
<polygon fill="none" stroke="black" points="574,-27.5 574,-63.5 735,-63.5 735,-27.5 574,-27.5"/>
<text xml:space="preserve" text-anchor="middle" x="613.88" y="-40.7" font-family="Times New Roman,serif" font-size="14.00">data 3.0000</text>
<polyline fill="none" stroke="black" points="653.75,-28 653.75,-63.5"/>
<text xml:space="preserve" text-anchor="middle" x="694.38" y="-40.7" font-family="Times New Roman,serif" font-size="14.00">grad 1.0000</text>
</g>
<!-- 2779334706144&#45;&gt;2779334706288ReLU -->
<g id="edge5" class="edge">
<title>2779334706144&#45;&gt;2779334706288ReLU</title>
<path fill="none" stroke="black" d="M735.1,-45.5C743.46,-45.5 751.72,-45.5 759.45,-45.5"/>
<polygon fill="black" stroke="black" points="759.21,-49 769.21,-45.5 759.21,-42 759.21,-49"/>
</g>
<!-- 2779334706144+&#45;&gt;2779334706144 -->
<g id="edge3" class="edge">
<title>2779334706144+&#45;&gt;2779334706144</title>
<path fill="none" stroke="black" d="M538.28,-45.5C545.4,-45.5 553.52,-45.5 562.08,-45.5"/>
<polygon fill="black" stroke="black" points="562.04,-49 572.04,-45.5 562.04,-42 562.04,-49"/>
</g>
</g>
</svg>
